<?xml version="1.0" encoding="UTF-8"?><svg xmlns="http://www.w3.org/2000/svg" xmlns:xlink="http://www.w3.org/1999/xlink" width="375" zoomAndPan="magnify" viewBox="0 0 375 374.999991" height="374.999991" preserveAspectRatio="xMidYMid meet" version="1.0"><defs><filter x="0%" y="0%" width="100%" xmlns:xlink="http://www.w3.org/1999/xlink" xlink:type="simple" xlink:actuate="onLoad" height="100%" id="filter-remove-color" xlink:show="other"><feColorMatrix values="0 0 0 0 1 0 0 0 0 1 0 0 0 0 1 0 0 0 1 0" color-interpolation-filters="sRGB"/></filter><mask id="mask-0"><g filter="url(#filter-remove-color)"><rect x="-37.5" width="450" fill="rgb(0%, 0%, 0%)" y="-37.499999" height="449.999989" fill-opacity="0.2"/></g></mask><clipPath id="clip-0"><path d="M 2 1 L 20 1 L 20 6.519531 L 2 6.519531 Z M 2 1 " clip-rule="nonzero"/></clipPath><clipPath id="clip-1"><path d="M 22 1 L 29 1 L 29 6.519531 L 22 6.519531 Z M 22 1 " clip-rule="nonzero"/></clipPath><clipPath id="clip-2"><rect x="0" width="30" y="0" height="7"/></clipPath><mask id="mask-1"><g filter="url(#filter-remove-color)"><rect x="-37.5" width="450" fill="rgb(0%, 0%, 0%)" y="-37.499999" height="449.999989" fill-opacity="0.298"/></g></mask><clipPath id="clip-3"><rect x="0" width="37" y="0" height="8"/></clipPath></defs><path fill="rgb(30.979919%, 90.979004%, 55.288696%)" d="M 375 187.5 C 375 291.054688 291.039062 374.984375 187.515625 374.984375 C 83.960938 374.984375 0 291.054688 0 187.5 C 0 83.945312 83.960938 0.015625 187.515625 0.015625 C 291.039062 0.015625 375 83.945312 375 187.5 Z M 375 187.5 " fill-opacity="1" fill-rule="nonzero"/><path fill="rgb(20.779419%, 81.959534%, 45.878601%)" d="M 331.648438 190.121094 C 330.253906 268.574219 266.265625 331.671875 187.5 331.671875 C 117.191406 331.671875 58.660156 281.378906 45.921875 214.773438 C 44.21875 205.953125 43.328125 196.824219 43.328125 187.5 C 43.328125 107.894531 107.867188 43.328125 187.5 43.328125 C 270.042969 43.328125 333.8125 112.214844 331.648438 190.121094 Z M 331.648438 190.121094 " fill-opacity="1" fill-rule="nonzero"/><path fill="rgb(100%, 100%, 100%)" d="M 297.9375 64.542969 L 297.9375 310.457031 C 297.9375 320.128906 290.105469 327.980469 280.429688 327.980469 L 94.460938 327.980469 C 84.789062 327.980469 76.9375 320.128906 76.9375 310.457031 L 76.9375 64.542969 C 76.9375 54.871094 84.789062 47.019531 94.460938 47.019531 L 280.429688 47.019531 C 290.105469 47.019531 297.9375 54.871094 297.9375 64.542969 Z M 297.9375 64.542969 " fill-opacity="1" fill-rule="nonzero"/><path fill="rgb(98.81897%, 32.939148%, 36.468506%)" d="M 207.460938 207.148438 L 105.332031 207.148438 C 103.136719 207.148438 101.085938 208.558594 100.566406 210.691406 C 99.792969 213.859375 102.140625 216.667969 105.175781 216.667969 L 207.460938 216.667969 C 210.089844 216.667969 212.21875 214.535156 212.21875 211.90625 C 212.21875 209.277344 210.089844 207.148438 207.460938 207.148438 Z M 207.460938 207.148438 " fill-opacity="1" fill-rule="nonzero"/><path fill="rgb(98.81897%, 32.939148%, 36.468506%)" d="M 269.546875 207.148438 L 234 207.148438 C 231.371094 207.148438 229.238281 209.277344 229.238281 211.90625 C 229.238281 214.535156 231.371094 216.667969 234 216.667969 L 269.703125 216.667969 C 272.734375 216.667969 275.085938 213.859375 274.3125 210.691406 C 273.792969 208.558594 271.738281 207.148438 269.546875 207.148438 Z M 269.546875 207.148438 " fill-opacity="1" fill-rule="nonzero"/><path fill="rgb(100%, 73.728943%, 31.369019%)" d="M 133.621094 234.480469 L 105.332031 234.480469 C 103.136719 234.480469 101.085938 235.890625 100.566406 238.023438 C 99.792969 241.191406 102.140625 244 105.175781 244 L 133.621094 244 C 136.25 244 138.378906 241.867188 138.378906 239.238281 C 138.378906 236.609375 136.25 234.480469 133.621094 234.480469 Z M 133.621094 234.480469 " fill-opacity="1" fill-rule="nonzero"/><path fill="rgb(100%, 73.728943%, 31.369019%)" d="M 269.546875 234.480469 L 153.613281 234.480469 C 150.984375 234.480469 148.855469 236.609375 148.855469 239.238281 C 148.855469 241.867188 150.984375 244 153.613281 244 L 269.703125 244 C 272.734375 244 275.085938 241.191406 274.3125 238.023438 C 273.792969 235.890625 271.738281 234.480469 269.546875 234.480469 Z M 269.546875 234.480469 " fill-opacity="1" fill-rule="nonzero"/><path fill="rgb(71.759033%, 18.818665%, 66.668701%)" d="M 139.578125 289.144531 L 105.332031 289.144531 C 103.136719 289.144531 101.085938 290.558594 100.566406 292.6875 C 99.792969 295.859375 102.140625 298.664062 105.175781 298.664062 L 139.578125 298.664062 C 142.207031 298.664062 144.335938 296.53125 144.335938 293.902344 C 144.335938 291.273438 142.207031 289.144531 139.578125 289.144531 Z M 139.578125 289.144531 " fill-opacity="1" fill-rule="nonzero"/><path fill="rgb(71.759033%, 18.818665%, 66.668701%)" d="M 269.546875 289.144531 L 160.683594 289.144531 C 158.054688 289.144531 155.921875 291.273438 155.921875 293.902344 C 155.921875 296.53125 158.054688 298.664062 160.683594 298.664062 L 269.703125 298.664062 C 272.734375 298.664062 275.085938 295.859375 274.3125 292.6875 C 273.792969 290.558594 271.738281 289.144531 269.546875 289.144531 Z M 269.546875 289.144531 " fill-opacity="1" fill-rule="nonzero"/><path fill="rgb(26.269531%, 63.139343%, 100%)" d="M 269.546875 261.8125 L 246.042969 261.8125 C 243.414062 261.8125 241.285156 263.941406 241.285156 266.570312 C 241.285156 269.199219 243.414062 271.332031 246.042969 271.332031 L 269.703125 271.332031 C 272.734375 271.332031 275.085938 268.523438 274.3125 265.355469 C 273.792969 263.226562 271.738281 261.8125 269.546875 261.8125 Z M 269.546875 261.8125 " fill-opacity="1" fill-rule="nonzero"/><path fill="rgb(26.269531%, 63.139343%, 100%)" d="M 223.300781 261.8125 L 105.332031 261.8125 C 103.136719 261.8125 101.085938 263.226562 100.566406 265.355469 C 99.792969 268.523438 102.140625 271.332031 105.175781 271.332031 L 223.300781 271.332031 C 225.929688 271.332031 228.0625 269.199219 228.0625 266.570312 C 228.0625 263.941406 225.929688 261.8125 223.300781 261.8125 Z M 223.300781 261.8125 " fill-opacity="1" fill-rule="nonzero"/><path fill="rgb(94.509888%, 26.669312%, 28.239441%)" d="M 113.414062 216.667969 L 105.167969 216.667969 C 102.152344 216.667969 99.785156 213.867188 100.554688 210.699219 C 101.078125 208.574219 103.136719 207.160156 105.324219 207.160156 L 113.570312 207.160156 C 111.382812 207.160156 109.324219 208.574219 108.800781 210.699219 C 108.03125 213.867188 110.398438 216.667969 113.414062 216.667969 Z M 113.414062 216.667969 " fill-opacity="1" fill-rule="nonzero"/><path fill="rgb(94.509888%, 26.669312%, 28.239441%)" d="M 242.234375 216.667969 L 233.988281 216.667969 C 231.375 216.667969 229.25 214.542969 229.25 211.898438 C 229.25 209.28125 231.375 207.160156 233.988281 207.160156 L 242.234375 207.160156 C 239.617188 207.160156 237.496094 209.28125 237.496094 211.898438 C 237.496094 214.542969 239.617188 216.667969 242.234375 216.667969 Z M 242.234375 216.667969 " fill-opacity="1" fill-rule="nonzero"/><path fill="rgb(100%, 70.199585%, 17.248535%)" d="M 113.414062 243.988281 L 105.167969 243.988281 C 102.152344 243.988281 99.785156 241.1875 100.554688 238.019531 C 101.078125 235.894531 103.136719 234.480469 105.324219 234.480469 L 113.570312 234.480469 C 111.382812 234.480469 109.324219 235.894531 108.800781 238.019531 C 108.03125 241.1875 110.398438 243.988281 113.414062 243.988281 Z M 113.414062 243.988281 " fill-opacity="1" fill-rule="nonzero"/><path fill="rgb(100%, 70.199585%, 17.248535%)" d="M 161.871094 243.988281 L 153.625 243.988281 C 150.980469 243.988281 148.859375 241.863281 148.859375 239.25 C 148.859375 236.601562 150.980469 234.480469 153.625 234.480469 L 161.871094 234.480469 C 159.226562 234.480469 157.101562 236.601562 157.101562 239.25 C 157.101562 241.863281 159.226562 243.988281 161.871094 243.988281 Z M 161.871094 243.988281 " fill-opacity="1" fill-rule="nonzero"/><path fill="rgb(63.919067%, 13.729858%, 56.858826%)" d="M 113.414062 298.660156 L 105.167969 298.660156 C 102.152344 298.660156 99.785156 295.859375 100.554688 292.691406 C 101.078125 290.566406 103.136719 289.152344 105.324219 289.152344 L 113.570312 289.152344 C 111.382812 289.152344 109.324219 290.566406 108.800781 292.691406 C 108.03125 295.859375 110.398438 298.660156 113.414062 298.660156 Z M 113.414062 298.660156 " fill-opacity="1" fill-rule="nonzero"/><path fill="rgb(63.919067%, 13.729858%, 56.858826%)" d="M 168.917969 298.660156 L 160.671875 298.660156 C 158.054688 298.660156 155.933594 296.535156 155.933594 293.890625 C 155.933594 291.277344 158.054688 289.152344 160.671875 289.152344 L 168.917969 289.152344 C 166.300781 289.152344 164.179688 291.277344 164.179688 293.890625 C 164.179688 296.535156 166.300781 298.660156 168.917969 298.660156 Z M 168.917969 298.660156 " fill-opacity="1" fill-rule="nonzero"/><path fill="rgb(17.248535%, 54.899597%, 100%)" d="M 254.292969 271.339844 L 246.050781 271.339844 C 243.402344 271.339844 241.28125 269.214844 241.28125 266.570312 C 241.28125 263.953125 243.402344 261.800781 246.050781 261.800781 L 254.292969 261.800781 C 251.648438 261.800781 249.523438 263.953125 249.523438 266.570312 C 249.523438 269.214844 251.648438 271.339844 254.292969 271.339844 Z M 254.292969 271.339844 " fill-opacity="1" fill-rule="nonzero"/><path fill="rgb(17.248535%, 54.899597%, 100%)" d="M 113.414062 271.339844 L 105.167969 271.339844 C 102.152344 271.339844 99.785156 268.539062 100.554688 265.371094 C 101.078125 263.214844 103.136719 261.800781 105.324219 261.800781 L 113.570312 261.800781 C 111.382812 261.800781 109.324219 263.214844 108.800781 265.371094 C 108.03125 268.539062 110.398438 271.339844 113.414062 271.339844 Z M 113.414062 271.339844 " fill-opacity="1" fill-rule="nonzero"/><path fill="rgb(61.959839%, 90.19928%, 100%)" d="M 235.707031 87.535156 L 235.707031 167.992188 C 235.707031 173.539062 232.105469 178.238281 227.121094 179.828125 C 226.839844 179.933594 226.554688 180.003906 226.273438 180.074219 C 225.316406 180.320312 224.292969 180.464844 223.234375 180.464844 L 151.644531 180.464844 C 150.089844 180.464844 148.605469 180.179688 147.226562 179.652344 C 146.945312 179.546875 146.664062 179.4375 146.378906 179.296875 C 142.136719 177.320312 139.171875 173.007812 139.171875 167.992188 L 139.171875 87.535156 C 139.171875 80.679688 144.789062 75.0625 151.644531 75.0625 L 223.234375 75.0625 C 230.089844 75.0625 235.707031 80.679688 235.707031 87.535156 Z M 235.707031 87.535156 " fill-opacity="1" fill-rule="nonzero"/><path fill="rgb(46.269226%, 84.709167%, 100%)" d="M 235.210938 171.472656 C 234.0625 175.4375 231.007812 178.613281 227.121094 179.84375 C 226.84375 179.921875 226.5625 180 226.285156 180.082031 C 225.335938 180.320312 224.304688 180.476562 223.234375 180.476562 L 151.628906 180.476562 C 150.082031 180.476562 148.613281 180.199219 147.226562 179.644531 C 146.949219 179.5625 146.671875 179.445312 146.390625 179.285156 C 142.148438 177.304688 139.171875 173.019531 139.171875 167.980469 L 139.171875 87.535156 C 139.171875 81.863281 143.019531 77.0625 148.179688 75.597656 C 147.246094 78.476562 147.824219 75.050781 147.664062 159.492188 C 147.664062 164.527344 150.636719 168.8125 154.882812 170.796875 C 155.160156 170.957031 155.4375 171.074219 155.714844 171.15625 C 157.105469 171.710938 158.570312 171.988281 160.117188 171.988281 L 231.71875 171.988281 C 232.792969 171.988281 233.824219 171.828125 234.777344 171.589844 C 234.9375 171.550781 235.054688 171.511719 235.210938 171.472656 Z M 235.210938 171.472656 " fill-opacity="1" fill-rule="nonzero"/><path fill="rgb(71.759033%, 18.818665%, 66.668701%)" d="M 226.273438 165.980469 L 226.273438 180.074219 C 225.316406 180.320312 224.292969 180.464844 223.234375 180.464844 L 151.644531 180.464844 C 150.089844 180.464844 148.605469 180.179688 147.226562 179.652344 L 147.226562 165.980469 C 147.226562 154.671875 156.378906 145.488281 167.6875 145.488281 L 205.8125 145.488281 C 217.121094 145.488281 226.273438 154.671875 226.273438 165.980469 Z M 226.273438 165.980469 " fill-opacity="1" fill-rule="nonzero"/><path fill="rgb(63.919067%, 13.729858%, 56.858826%)" d="M 226.265625 173.902344 L 226.265625 180.085938 C 225.3125 180.332031 224.296875 180.453125 223.21875 180.453125 L 151.65625 180.453125 C 150.089844 180.453125 148.613281 180.175781 147.226562 179.65625 L 147.226562 165.996094 C 147.226562 158.640625 151.074219 152.179688 156.886719 148.609375 C 154.886719 151.75 153.78125 155.472656 153.78125 159.441406 C 153.78125 167.425781 160.253906 173.902344 168.238281 173.902344 Z M 226.265625 173.902344 " fill-opacity="1" fill-rule="nonzero"/><path fill="rgb(7.449341%, 9.408569%, 11.759949%)" d="M 160.96875 100.410156 L 160.96875 116.027344 L 211.855469 116.027344 L 211.855469 93.78125 C 209.652344 97.746094 205.417969 100.410156 200.570312 100.410156 Z M 160.96875 100.410156 " fill-opacity="1" fill-rule="nonzero"/><path fill="rgb(63.919067%, 13.729858%, 56.858826%)" d="M 201.210938 150.125 L 201.210938 159.675781 C 201.210938 161.574219 199.351562 162.917969 197.546875 162.324219 L 188.125 159.207031 C 187.558594 159.019531 186.945312 159.019531 186.375 159.207031 L 176.914062 162.328125 C 175.109375 162.921875 173.25 161.578125 173.25 159.675781 L 173.25 150.125 C 173.25 142.417969 179.5 136.144531 187.230469 136.144531 C 191.09375 136.144531 194.585938 137.703125 197.128906 140.246094 C 199.652344 142.769531 201.210938 146.261719 201.210938 150.125 Z M 201.210938 150.125 " fill-opacity="1" fill-rule="nonzero"/><path fill="rgb(100%, 100%, 100%)" d="M 201.210938 148.179688 L 201.210938 157.730469 C 201.210938 159.628906 199.351562 160.976562 197.546875 160.378906 L 188.125 157.265625 C 187.558594 157.078125 186.945312 157.078125 186.375 157.265625 L 176.914062 160.382812 C 175.109375 160.976562 173.25 159.632812 173.25 157.734375 L 173.25 148.179688 C 173.25 140.472656 179.5 134.203125 187.230469 134.203125 C 191.09375 134.203125 194.585938 135.757812 197.128906 138.304688 C 199.652344 140.828125 201.210938 144.316406 201.210938 148.179688 Z M 201.210938 148.179688 " fill-opacity="1" fill-rule="nonzero"/><path fill="rgb(100%, 76.078796%, 48.629761%)" d="M 178.648438 139.472656 L 178.648438 146.621094 C 178.648438 151.0625 182.257812 154.652344 186.679688 154.652344 C 188.882812 154.652344 190.894531 153.765625 192.355469 152.308594 C 193.8125 150.851562 194.730469 148.839844 194.730469 146.621094 L 194.730469 139.472656 Z M 178.648438 139.472656 " fill-opacity="1" fill-rule="nonzero"/><path fill="rgb(96.859741%, 69.799805%, 42.749023%)" d="M 194.742188 139.464844 L 194.742188 146.625 C 194.742188 148.828125 193.808594 150.863281 192.347656 152.300781 C 192.273438 152.371094 192.179688 152.46875 192.082031 152.539062 C 192.324219 151.773438 192.464844 150.960938 192.464844 150.121094 C 192.464844 146.167969 189.261719 142.960938 185.304688 142.960938 L 178.648438 142.960938 L 178.648438 139.464844 Z M 194.742188 139.464844 " fill-opacity="1" fill-rule="nonzero"/><path fill="rgb(100%, 76.078796%, 48.629761%)" d="M 205.351562 99.101562 L 205.351562 123.464844 C 205.351562 132.429688 199.296875 140.628906 190.503906 142.363281 C 178.589844 144.714844 168.136719 135.628906 168.136719 124.144531 L 168.136719 99.101562 Z M 205.351562 99.101562 " fill-opacity="1" fill-rule="nonzero"/><path fill="rgb(100%, 100%, 100%)" d="M 176.246094 136.144531 C 175.914062 136.144531 175.585938 136.019531 175.332031 135.765625 C 173.800781 134.234375 172.605469 132.449219 171.78125 130.464844 C 171.507812 129.804688 171.820312 129.046875 172.480469 128.773438 C 173.140625 128.496094 173.902344 128.8125 174.171875 129.472656 C 174.867188 131.144531 175.871094 132.644531 177.164062 133.9375 C 177.667969 134.441406 177.667969 135.261719 177.164062 135.765625 C 176.910156 136.019531 176.578125 136.144531 176.246094 136.144531 Z M 176.246094 136.144531 " fill-opacity="0.298" fill-rule="nonzero"/><path fill="rgb(100%, 100%, 100%)" d="M 171.960938 127.484375 C 171.320312 127.484375 170.765625 127.011719 170.679688 126.359375 C 170.621094 125.929688 170.582031 125.492188 170.558594 125.054688 C 170.519531 124.339844 171.066406 123.730469 171.78125 123.691406 C 172.503906 123.667969 173.105469 124.199219 173.140625 124.914062 C 173.164062 125.285156 173.199219 125.65625 173.246094 126.023438 C 173.339844 126.730469 172.839844 127.382812 172.132812 127.472656 C 172.074219 127.480469 172.015625 127.484375 171.960938 127.484375 Z M 171.960938 127.484375 " fill-opacity="0.298" fill-rule="nonzero"/><path fill="rgb(100%, 76.078796%, 48.629761%)" d="M 205.359375 110.675781 C 205.359375 110.675781 205.355469 110.679688 205.355469 110.679688 L 205.355469 124.496094 C 205.355469 124.496094 205.359375 124.496094 205.359375 124.496094 C 209.171875 124.496094 212.269531 121.398438 212.269531 117.585938 C 212.269531 113.777344 209.171875 110.675781 205.359375 110.675781 Z M 205.359375 110.675781 " fill-opacity="1" fill-rule="nonzero"/><path fill="rgb(0%, 0%, 0%)" d="M 192.6875 114.996094 L 192.6875 117.730469 C 192.6875 119.519531 194.136719 120.972656 195.925781 120.972656 C 197.71875 120.972656 199.167969 119.519531 199.167969 117.730469 L 199.167969 114.996094 C 199.167969 113.207031 197.71875 111.753906 195.925781 111.753906 C 194.136719 111.753906 192.6875 113.207031 192.6875 114.996094 Z M 192.6875 114.996094 " fill-opacity="1" fill-rule="nonzero"/><path fill="rgb(0%, 0%, 0%)" d="M 174.320312 114.996094 L 174.320312 117.730469 C 174.320312 119.519531 175.773438 120.972656 177.5625 120.972656 C 179.351562 120.972656 180.804688 119.519531 180.804688 117.730469 L 180.804688 114.996094 C 180.804688 113.207031 179.351562 111.753906 177.5625 111.753906 C 175.773438 111.753906 174.320312 113.207031 174.320312 114.996094 Z M 174.320312 114.996094 " fill-opacity="1" fill-rule="nonzero"/><path fill="rgb(0%, 0%, 0%)" d="M 186.746094 124.328125 C 186.074219 124.328125 185.53125 123.785156 185.53125 123.113281 L 185.53125 120.214844 C 185.53125 119.542969 186.074219 119 186.746094 119 C 187.414062 119 187.960938 119.542969 187.960938 120.214844 L 187.960938 123.113281 C 187.960938 123.785156 187.414062 124.328125 186.746094 124.328125 Z M 186.746094 124.328125 " fill-opacity="1" fill-rule="nonzero"/><path fill="rgb(100%, 76.078796%, 48.629761%)" d="M 168.132812 110.675781 C 168.136719 110.675781 168.136719 110.679688 168.140625 110.679688 L 168.140625 124.496094 C 168.136719 124.496094 168.136719 124.496094 168.132812 124.496094 C 164.324219 124.496094 161.222656 121.398438 161.222656 117.585938 C 161.222656 113.777344 164.324219 110.675781 168.132812 110.675781 Z M 168.132812 110.675781 " fill-opacity="1" fill-rule="nonzero"/><path fill="rgb(0%, 0%, 0%)" d="M 193.371094 132.171875 C 193.082031 132.949219 192.660156 133.664062 192.140625 134.277344 C 190.847656 135.800781 188.921875 136.753906 186.75 136.753906 C 184.582031 136.753906 182.65625 135.785156 181.34375 134.261719 C 180.828125 133.648438 180.40625 132.933594 180.113281 132.171875 C 179.675781 131.007812 180.566406 129.777344 181.8125 129.777344 L 191.671875 129.777344 C 192.917969 129.777344 193.808594 131.007812 193.371094 132.171875 Z M 193.371094 132.171875 " fill-opacity="1" fill-rule="nonzero"/><path fill="rgb(93.728638%, 33.729553%, 48.239136%)" d="M 190.429688 133.785156 C 189.542969 134.824219 188.230469 135.476562 186.75 135.476562 C 185.269531 135.476562 183.953125 134.8125 183.058594 133.773438 C 183.941406 132.734375 185.257812 132.070312 186.738281 132.070312 C 188.21875 132.070312 189.542969 132.734375 190.429688 133.785156 Z M 190.429688 133.785156 " fill-opacity="1" fill-rule="nonzero"/><path fill="rgb(100%, 100%, 100%)" d="M 179.402344 115.515625 C 179.402344 116.148438 178.882812 116.664062 178.253906 116.664062 C 177.605469 116.664062 177.105469 116.148438 177.105469 115.515625 C 177.105469 113.984375 179.402344 114.003906 179.402344 115.515625 Z M 179.402344 115.515625 " fill-opacity="1" fill-rule="nonzero"/><path fill="rgb(100%, 100%, 100%)" d="M 197.894531 114.875 C 197.894531 115.507812 197.375 116.027344 196.746094 116.027344 C 196.097656 116.027344 195.59375 115.507812 195.59375 114.875 C 195.59375 114.246094 196.097656 113.726562 196.746094 113.726562 C 197.375 113.726562 197.894531 114.246094 197.894531 114.875 Z M 197.894531 114.875 " fill-opacity="1" fill-rule="nonzero"/><path fill="rgb(14.118958%, 15.289307%, 16.859436%)" d="M 160.96875 89.117188 L 160.96875 102.683594 L 200.570312 102.683594 C 207.699219 102.683594 213.484375 96.914062 213.484375 89.789062 L 213.484375 87.890625 C 213.484375 84.210938 210.496094 81.222656 206.816406 81.222656 L 168.863281 81.222656 C 164.515625 81.222656 160.96875 84.765625 160.96875 89.117188 Z M 160.96875 89.117188 " fill-opacity="1" fill-rule="nonzero"/><g mask="url(#mask-0)"><g transform="matrix(1, 0, 0, 1, 180, 83)"><g id="source-5" clip-path="url(#clip-2)"><g clip-path="url(#clip-0)"><path fill="rgb(100%, 100%, 100%)" d="M 4.363281 6.085938 L 16.828125 6.085938 C 18.046875 6.085938 19.03125 5.101562 19.03125 3.886719 C 19.03125 2.671875 18.046875 1.683594 16.828125 1.683594 L 4.363281 1.683594 C 3.148438 1.683594 2.164062 2.671875 2.164062 3.886719 C 2.164062 5.101562 3.148438 6.085938 4.363281 6.085938 Z M 4.363281 6.085938 " fill-opacity="1" fill-rule="nonzero"/></g><g clip-path="url(#clip-1)"><path fill="rgb(100%, 100%, 100%)" d="M 24.277344 6.085938 L 26.058594 6.085938 C 27.273438 6.085938 28.261719 5.101562 28.261719 3.886719 C 28.261719 2.671875 27.273438 1.683594 26.058594 1.683594 L 24.277344 1.683594 C 23.0625 1.683594 22.078125 2.671875 22.078125 3.886719 C 22.078125 5.101562 23.0625 6.085938 24.277344 6.085938 Z M 24.277344 6.085938 " fill-opacity="1" fill-rule="nonzero"/></g></g></g></g><path fill="rgb(100%, 100%, 100%)" d="M 221.46875 135.683594 L 221.472656 94.308594 C 221.472656 92.410156 223.007812 90.875 224.90625 90.875 C 226.800781 90.875 228.335938 92.410156 228.335938 94.308594 L 228.335938 135.683594 C 228.335938 137.578125 226.796875 139.113281 224.902344 139.113281 C 223.007812 139.113281 221.46875 137.578125 221.46875 135.683594 Z M 221.46875 135.683594 " fill-opacity="0.298" fill-rule="nonzero"/><path fill="rgb(100%, 73.728943%, 31.369019%)" d="M 254.53125 147.171875 L 254.53125 190.109375 C 254.53125 190.238281 254.53125 190.371094 254.546875 190.5 C 254.753906 196.109375 259.371094 200.613281 265.035156 200.613281 L 265.914062 200.613281 C 266.886719 200.613281 267.671875 201.398438 267.671875 202.371094 L 267.671875 209.472656 C 267.671875 210.914062 269.296875 211.734375 270.457031 210.875 C 284.523438 200.644531 283.945312 200.613281 284.941406 200.613281 L 323.316406 200.613281 C 329.128906 200.613281 333.824219 195.902344 333.824219 190.109375 C 333.746094 145.832031 334.277344 145.546875 332.90625 142.929688 C 331.800781 139.828125 327.703125 136.703125 323.933594 136.703125 C 323.757812 136.644531 309.761719 136.683594 265.035156 136.667969 C 259.242188 136.667969 254.53125 141.378906 254.53125 147.171875 Z M 254.53125 147.171875 " fill-opacity="1" fill-rule="nonzero"/><path fill="rgb(100%, 70.199585%, 17.248535%)" d="M 263.296875 171.769531 L 263.296875 136.84375 C 258.34375 137.6875 254.554688 141.980469 254.554688 147.171875 L 254.554688 190.109375 C 254.554688 190.238281 254.554688 190.371094 254.570312 190.5 C 254.777344 196.109375 259.394531 200.613281 265.058594 200.613281 L 265.9375 200.613281 C 266.910156 200.613281 267.695312 201.398438 267.695312 202.371094 L 267.695312 209.472656 C 267.695312 210.914062 269.320312 211.734375 270.480469 210.875 L 283.9375 200.96875 C 284.753906 200.304688 283.066406 200.730469 323.339844 200.613281 C 329 200.613281 333.5625 196.140625 333.800781 190.554688 L 282.082031 190.554688 C 271.707031 190.554688 263.296875 182.144531 263.296875 171.769531 Z M 263.296875 171.769531 " fill-opacity="1" fill-rule="nonzero"/><g mask="url(#mask-1)"><g transform="matrix(1, 0, 0, 1, 273, 138)"><g id="source-8" clip-path="url(#clip-3)"><path fill="rgb(100%, 100%, 100%)" d="M 4.734375 5.632812 L 24.324219 5.632812 C 25.46875 5.632812 26.394531 4.703125 26.394531 3.5625 C 26.394531 2.417969 25.46875 1.488281 24.324219 1.488281 L 4.734375 1.488281 C 3.589844 1.488281 2.664062 2.417969 2.664062 3.558594 C 2.664062 4.703125 3.589844 5.632812 4.734375 5.632812 Z M 4.734375 5.632812 " fill-opacity="1" fill-rule="nonzero"/><path fill="rgb(100%, 100%, 100%)" d="M 31.332031 5.632812 L 33.011719 5.632812 C 34.152344 5.632812 35.082031 4.703125 35.082031 3.5625 C 35.082031 2.417969 34.152344 1.492188 33.007812 1.492188 L 31.332031 1.492188 C 30.191406 1.492188 29.261719 2.417969 29.261719 3.5625 C 29.261719 4.703125 30.191406 5.632812 31.332031 5.632812 Z M 31.332031 5.632812 " fill-opacity="1" fill-rule="nonzero"/></g></g></g><path fill="rgb(100%, 100%, 100%)" d="M 303.46875 161.71875 C 303.066406 164 301.84375 169.015625 298.050781 173.746094 C 300.558594 175.914062 303.410156 177.707031 306.601562 179.074219 C 308.96875 179.996094 307.914062 183.980469 304.890625 183.066406 C 301.273438 181.496094 297.996094 179.445312 295.117188 176.910156 C 292.066406 179.671875 288.25 181.753906 283.804688 183.09375 C 283.269531 183.449219 281.5625 183.164062 281.09375 181.667969 C 280.753906 180.5 281.410156 179.304688 282.578125 178.960938 C 286.28125 177.851562 289.476562 176.167969 292.066406 173.917969 C 290.328125 171.894531 288.847656 169.671875 287.679688 167.304688 C 287.136719 166.25 287.5625 164.96875 288.648438 164.425781 C 289.726562 163.855469 291.035156 164.355469 291.554688 165.394531 C 292.464844 167.25 293.636719 169.042969 295.03125 170.695312 C 297.597656 167.304688 298.652344 163.800781 299.078125 161.71875 L 280.953125 161.71875 C 279.757812 161.71875 278.789062 160.75 278.789062 159.523438 C 278.789062 158.300781 279.757812 157.359375 280.953125 157.359375 L 291.980469 157.359375 L 291.980469 154.167969 C 291.980469 152.96875 292.949219 152 294.148438 152 C 295.375 152 296.3125 152.941406 296.3125 154.167969 L 296.3125 157.359375 L 307.398438 157.359375 C 308.597656 157.359375 309.566406 158.328125 309.566406 159.523438 C 309.566406 160.722656 308.597656 161.71875 307.398438 161.71875 Z M 303.46875 161.71875 " fill-opacity="1" fill-rule="nonzero"/><path fill="rgb(26.269531%, 63.139343%, 100%)" d="M 43.621094 175.640625 L 43.621094 220.746094 C 43.621094 225.226562 47.300781 228.90625 51.78125 228.90625 L 96.460938 228.90625 C 96.761719 228.90625 97.058594 229.007812 97.285156 229.179688 L 108.03125 237.265625 C 108.925781 237.964844 110.21875 237.316406 110.21875 236.171875 L 110.21875 230.277344 C 110.21875 229.53125 110.84375 228.90625 111.589844 228.90625 L 115.542969 228.90625 C 120.046875 228.90625 123.730469 225.226562 123.730469 220.746094 L 123.730469 175.640625 C 123.730469 171.140625 120.046875 167.480469 115.542969 167.480469 L 51.78125 167.480469 C 47.277344 167.480469 43.621094 171.140625 43.621094 175.640625 Z M 43.621094 175.640625 " fill-opacity="1" fill-rule="nonzero"/><path fill="rgb(17.248535%, 54.899597%, 100%)" d="M 43.621094 215.859375 L 43.621094 220.738281 C 43.621094 225.222656 47.289062 228.914062 51.773438 228.914062 L 96.472656 228.914062 C 96.75 228.914062 97.050781 229.007812 97.285156 229.171875 L 108.042969 237.253906 C 108.925781 237.953125 110.226562 237.324219 110.226562 236.164062 L 110.226562 231.285156 C 110.226562 232.445312 108.925781 233.074219 108.042969 232.378906 L 97.285156 224.292969 C 97.050781 224.128906 96.75 224.035156 96.472656 224.035156 L 51.773438 224.035156 C 47.289062 224.035156 43.621094 220.34375 43.621094 215.859375 Z M 43.621094 215.859375 " fill-opacity="1" fill-rule="nonzero"/><path fill="rgb(100%, 100%, 100%)" d="M 48.085938 210.066406 L 48.085938 216.207031 C 48.085938 217.226562 48.925781 218.0625 49.945312 218.0625 C 50.96875 218.0625 51.804688 217.226562 51.804688 216.207031 L 51.804688 210.066406 C 51.804688 209.023438 50.96875 208.210938 49.945312 208.210938 C 48.925781 208.210938 48.085938 209.023438 48.085938 210.066406 Z M 48.085938 210.066406 " fill-opacity="0.298" fill-rule="nonzero"/><path fill="rgb(100%, 100%, 100%)" d="M 48.085938 180.046875 L 48.085938 203.988281 C 48.085938 205.011719 48.925781 205.847656 49.945312 205.847656 C 50.96875 205.847656 51.804688 205.011719 51.804688 203.988281 L 51.804688 180.046875 C 51.804688 179 50.96875 178.1875 49.945312 178.1875 C 48.925781 178.1875 48.085938 179 48.085938 180.046875 Z M 48.085938 180.046875 " fill-opacity="0.298" fill-rule="nonzero"/><path fill="rgb(100%, 100%, 100%)" d="M 60.835938 206.304688 C 60.835938 206.109375 60.894531 205.863281 61.015625 205.570312 C 71.699219 180.503906 70.050781 182.261719 72.785156 181.964844 C 73.78125 181.964844 74.496094 182.558594 74.898438 183.46875 C 84.585938 206.621094 84.371094 205.757812 84.371094 206.304688 C 84.371094 208.160156 81.921875 208.570312 81.164062 206.929688 L 78.796875 201.199219 L 66.410156 201.199219 L 64.042969 206.929688 C 63.746094 207.566406 63.15625 207.957031 62.476562 207.957031 C 61.988281 207.957031 60.835938 207.210938 60.835938 206.304688 Z M 67.683594 198.152344 L 77.523438 198.152344 L 72.601562 186.222656 Z M 67.683594 198.152344 " fill-opacity="1" fill-rule="nonzero"/><path fill="rgb(100%, 100%, 100%)" d="M 81.480469 208.167969 C 80.445312 207.496094 80.574219 206.707031 78.40625 201.785156 L 66.800781 201.785156 C 64.640625 206.691406 64.765625 207.488281 63.726562 208.167969 C 61.941406 209.339844 59.515625 207.671875 60.476562 205.347656 L 69.765625 183.242188 C 70.261719 182.125 71.171875 181.378906 72.421875 181.378906 C 72.714844 181.414062 73.574219 181.234375 74.445312 181.929688 C 75.648438 182.886719 74.949219 182.457031 84.730469 205.339844 C 85.152344 206.363281 84.941406 207.253906 84.339844 207.882812 C 83.921875 208.320312 82.339844 208.734375 81.480469 208.167969 Z M 66.019531 200.613281 L 79.1875 200.613281 C 81.785156 206.707031 81.601562 206.847656 82.125 207.191406 C 82.964844 207.746094 84.160156 207.03125 83.648438 205.792969 C 73.003906 180.738281 74.585938 182.75 72.421875 182.550781 C 71.652344 182.550781 71.148438 183.015625 70.84375 183.707031 C 60.78125 207.765625 61.421875 205.898438 61.421875 206.304688 C 61.421875 206.621094 61.511719 206.867188 61.714844 207.074219 C 62.199219 207.578125 63.152344 207.464844 63.507812 206.683594 Z M 78.398438 198.738281 L 66.808594 198.738281 L 72.601562 184.683594 Z M 68.558594 197.566406 L 76.648438 197.566406 L 72.601562 187.761719 Z M 68.558594 197.566406 " fill-opacity="1" fill-rule="nonzero"/><path fill="rgb(100%, 100%, 100%)" d="M 90.003906 198.300781 C 92.996094 196.03125 97.808594 196.851562 100.660156 196.6875 L 100.660156 196.390625 C 100.660156 193.304688 99.269531 191.839844 95.777344 191.839844 C 91.523438 191.839844 90.644531 193.542969 89.511719 192.390625 C 88.890625 191.769531 88.910156 190.496094 90.054688 190.003906 C 92.121094 189.121094 94.222656 188.683594 96.359375 188.683594 C 101.109375 188.683594 103.976562 191.710938 103.976562 195.914062 C 103.820312 206.4375 104.34375 206.644531 103.484375 207.480469 C 102.441406 208.484375 100.660156 207.820312 100.660156 206.304688 L 100.660156 205.347656 C 98.859375 207.210938 96.578125 208.140625 93.808594 208.140625 C 87.605469 208.140625 86.109375 201.25 90.003906 198.300781 Z M 100.660156 202.449219 L 100.660156 199.363281 C 98.433594 199.59375 91.183594 198.378906 91.183594 202.265625 C 91.183594 204.445312 92.839844 205.203125 95.046875 205.203125 C 97.277344 205.203125 99.375 203.925781 100.660156 202.449219 Z M 100.660156 202.449219 " fill-opacity="1" fill-rule="nonzero"/><path fill="rgb(100%, 100%, 100%)" d="M 90.585938 208.007812 L 90.582031 208.007812 C 86.566406 206.054688 86.144531 200.488281 89.648438 197.832031 C 92.785156 195.453125 97.738281 196.253906 100.070312 196.097656 C 99.984375 193.582031 98.871094 192.425781 95.777344 192.425781 C 91.574219 192.425781 90.566406 194.296875 89.09375 192.800781 C 88.21875 191.921875 88.253906 190.136719 89.824219 189.464844 C 97.242188 186.300781 104.5625 188.632812 104.5625 195.914062 C 104.359375 206.238281 105.050781 206.777344 103.890625 207.898438 C 102.574219 209.171875 100.34375 208.4375 100.097656 206.652344 C 97.28125 208.882812 93.238281 209.289062 90.585938 208.007812 Z M 91.09375 206.949219 C 91.921875 207.351562 92.835938 207.554688 93.808594 207.554688 C 98.746094 207.554688 100.46875 204.488281 101.246094 203.898438 C 101.316406 206.109375 101.058594 206.574219 101.546875 207.066406 C 102.207031 207.730469 103.390625 207.265625 103.390625 206.304688 L 103.390625 195.914062 C 103.390625 189.328125 96.59375 187.847656 90.285156 190.542969 C 89.289062 190.96875 89.601562 192.457031 90.785156 192.152344 C 92.917969 191.429688 94.203125 191.253906 95.777344 191.253906 C 102.511719 191.253906 101.035156 196.921875 101.246094 197.273438 C 97.789062 197.453125 93.15625 196.644531 90.355469 198.765625 C 87.535156 200.90625 87.886719 205.402344 91.09375 206.949219 Z M 90.597656 202.265625 C 90.597656 197.585938 98.769531 199.050781 101.246094 198.777344 L 101.246094 202.667969 C 100.953125 202.953125 100.246094 203.964844 98.417969 204.929688 C 95.414062 206.519531 90.597656 206.101562 90.597656 202.265625 Z M 96.6875 199.953125 C 91.773438 199.953125 91.773438 201.695312 91.773438 202.265625 C 91.773438 202.980469 92 203.535156 92.472656 203.960938 C 93.613281 204.996094 97.40625 205.113281 100.074219 202.226562 L 100.074219 199.953125 Z M 96.6875 199.953125 " fill-opacity="1" fill-rule="nonzero"/><path fill="rgb(98.81897%, 32.939148%, 36.468506%)" d="M 247.480469 235.9375 L 247.480469 276.679688 C 247.480469 280.726562 244.15625 284.050781 240.109375 284.050781 L 199.75 284.050781 C 199.480469 284.050781 199.210938 284.140625 199.007812 284.296875 L 189.300781 291.601562 C 188.492188 292.230469 187.320312 291.644531 187.320312 290.613281 L 187.320312 285.285156 C 187.320312 284.613281 186.761719 284.050781 186.085938 284.050781 L 182.511719 284.050781 C 178.445312 284.050781 175.121094 280.726562 175.121094 276.679688 L 175.121094 235.9375 C 175.121094 231.871094 178.445312 228.566406 182.511719 228.566406 L 240.109375 228.566406 C 244.175781 228.566406 247.480469 231.871094 247.480469 235.9375 Z M 247.480469 235.9375 " fill-opacity="1" fill-rule="nonzero"/><path fill="rgb(94.509888%, 26.669312%, 28.239441%)" d="M 247.480469 272.265625 L 247.480469 276.671875 C 247.480469 280.722656 244.164062 284.058594 240.113281 284.058594 L 199.742188 284.058594 C 199.488281 284.058594 199.214844 284.140625 199.007812 284.289062 L 189.289062 291.589844 C 188.492188 292.222656 187.316406 291.652344 187.316406 290.605469 L 187.316406 286.199219 C 187.316406 287.246094 188.492188 287.8125 189.289062 287.183594 L 199.007812 279.882812 C 199.214844 279.734375 199.488281 279.652344 199.742188 279.652344 L 240.113281 279.652344 C 244.164062 279.652344 247.480469 276.3125 247.480469 272.265625 Z M 247.480469 272.265625 " fill-opacity="1" fill-rule="nonzero"/><path fill="rgb(100%, 100%, 100%)" d="M 243.445312 267.03125 L 243.445312 272.578125 C 243.445312 273.5 242.6875 274.253906 241.765625 274.253906 C 240.84375 274.253906 240.085938 273.5 240.085938 272.578125 L 240.085938 267.03125 C 240.085938 266.089844 240.84375 265.355469 241.765625 265.355469 C 242.6875 265.355469 243.445312 266.089844 243.445312 267.03125 Z M 243.445312 267.03125 " fill-opacity="0.298" fill-rule="nonzero"/><path fill="rgb(100%, 100%, 100%)" d="M 243.445312 239.914062 L 243.445312 261.542969 C 243.445312 262.464844 242.6875 263.21875 241.765625 263.21875 C 240.84375 263.21875 240.085938 262.464844 240.085938 261.542969 L 240.085938 239.914062 C 240.085938 238.96875 240.84375 238.234375 241.765625 238.234375 C 242.6875 238.234375 243.445312 238.96875 243.445312 239.914062 Z M 243.445312 239.914062 " fill-opacity="0.298" fill-rule="nonzero"/><path fill="rgb(100%, 100%, 100%)" d="M 222.445312 272.027344 C 222.445312 273.402344 221.324219 274.523438 219.949219 274.523438 C 218.574219 274.523438 217.453125 273.402344 217.453125 272.027344 C 217.453125 270.648438 218.574219 269.554688 219.949219 269.554688 C 221.324219 269.554688 222.445312 270.648438 222.445312 272.027344 Z M 222.445312 272.027344 " fill-opacity="1" fill-rule="nonzero"/><path fill="rgb(100%, 100%, 100%)" d="M 229.210938 272.027344 C 229.210938 273.402344 228.089844 274.523438 226.714844 274.523438 C 225.339844 274.523438 224.21875 273.402344 224.21875 272.027344 C 224.21875 270.648438 225.339844 269.554688 226.714844 269.554688 C 228.089844 269.554688 229.210938 270.648438 229.210938 272.027344 Z M 229.210938 272.027344 " fill-opacity="1" fill-rule="nonzero"/><path fill="rgb(100%, 100%, 100%)" d="M 211.988281 236.273438 L 211.988281 262.691406 C 211.988281 268.84375 206.992188 273.835938 200.867188 273.835938 C 194.714844 273.835938 189.726562 268.84375 189.726562 262.691406 L 189.726562 258.320312 C 189.726562 257.207031 190.644531 256.285156 191.761719 256.285156 C 192.875 256.285156 193.796875 257.207031 193.796875 258.320312 L 193.796875 262.691406 C 193.796875 266.59375 196.964844 269.761719 200.867188 269.761719 C 204.746094 269.761719 207.914062 266.59375 207.914062 262.691406 L 207.914062 236.273438 C 207.914062 235.160156 208.835938 234.238281 209.949219 234.238281 C 211.085938 234.238281 211.988281 235.160156 211.988281 236.273438 Z M 211.988281 236.273438 " fill-opacity="1" fill-rule="nonzero"/><path fill="rgb(100%, 100%, 100%)" d="M 230.390625 258.773438 L 230.390625 260.441406 C 230.390625 264.34375 227.222656 267.511719 223.320312 267.511719 C 219.421875 267.511719 216.273438 264.34375 216.273438 260.441406 L 216.273438 243.152344 C 216.273438 242.039062 217.171875 241.117188 218.308594 241.117188 C 219.421875 241.117188 220.34375 242.039062 220.34375 243.152344 L 220.34375 260.441406 C 220.34375 262.09375 221.671875 263.441406 223.320312 263.441406 C 224.972656 263.441406 226.320312 262.09375 226.320312 260.441406 L 226.320312 258.773438 C 226.320312 257.636719 227.242188 256.734375 228.355469 256.734375 C 229.46875 256.734375 230.390625 257.636719 230.390625 258.773438 Z M 230.390625 258.773438 " fill-opacity="1" fill-rule="nonzero"/></svg>