<?xml version="1.0" encoding="UTF-8"?><svg xmlns="http://www.w3.org/2000/svg" xmlns:xlink="http://www.w3.org/1999/xlink" width="375" zoomAndPan="magnify" viewBox="0 0 375 374.999991" height="374.999991" preserveAspectRatio="xMidYMid meet" version="1.0"><defs><clipPath id="clip-0"><path d="M 57.507812 87 L 337.714844 87 L 337.714844 374.207031 L 57.507812 374.207031 Z M 57.507812 87 " clip-rule="nonzero"/></clipPath><clipPath id="clip-1"><path d="M 265.488281 331.433594 L 328.328125 331.433594 L 328.328125 374.441406 L 265.488281 374.441406 Z M 265.488281 331.433594 " clip-rule="nonzero"/></clipPath><clipPath id="clip-2"><path d="M 30.234375 8.441406 L 202 8.441406 L 202 126 L 30.234375 126 Z M 30.234375 8.441406 " clip-rule="nonzero"/></clipPath></defs><g clip-path="url(#clip-0)"><path fill="rgb(87.449646%, 91.369629%, 97.648621%)" d="M 132.429688 337.054688 C 95.15625 324.167969 66.894531 291.105469 59.824219 252.386719 C 50.226562 199.832031 72.742188 146.738281 113.902344 113.519531 C 149.003906 85.1875 202.347656 80.777344 244.085938 95.066406 C 266.445312 102.71875 288.792969 117.765625 300.398438 139.4375 C 314.980469 166.675781 304.28125 197.136719 307.058594 226.203125 C 310.683594 264.125 347.207031 294.691406 335.363281 335.730469 C 328.847656 358.300781 307.402344 371.320312 284.929688 373.65625 C 254.355469 376.839844 232.226562 359.960938 204.84375 350.664062 C 187.8125 344.878906 169.410156 344.480469 151.753906 341.808594 C 145.085938 340.800781 138.625 339.195312 132.429688 337.054688 " fill-opacity="1" fill-rule="nonzero"/></g><path fill="rgb(94.509888%, 68.238831%, 45.098877%)" d="M 152.113281 286.105469 C 156.769531 281.417969 163.585938 282.109375 169.710938 281.570312 C 174.351562 281.160156 179.015625 280.75 183.515625 279.550781 C 193.835938 276.804688 202.335938 270.222656 211.332031 264.804688 C 218.648438 260.402344 228.625 259.375 236.8125 256.667969 C 239.007812 255.941406 241.230469 255.199219 243.175781 253.945312 C 247.203125 251.351562 248.621094 246.386719 250.960938 242.402344 C 251.710938 241.121094 252.484375 239.777344 252.585938 238.296875 C 252.75 236 251.308594 233.9375 249.933594 232.09375 C 247.914062 229.382812 245.28125 225.171875 241.730469 223.914062 C 236.929688 222.214844 233.875 226.867188 228.980469 226.914062 C 228.703125 221.332031 230.429688 215.996094 230.6875 210.429688 C 230.972656 204.1875 231.269531 197.945312 231.5625 191.703125 C 232.019531 181.929688 237.800781 182.253906 244.707031 178.167969 C 250.3125 174.851562 252.554688 165.515625 244.570312 163.53125 C 241.773438 162.835938 238.832031 163.496094 236.039062 164.226562 C 215.578125 169.585938 196.355469 178.726562 176.75 186.65625 C 168.957031 189.808594 160.796875 192.824219 152.398438 192.394531 C 150.699219 192.304688 148.960938 192.0625 147.476562 191.234375 C 143.460938 189.007812 142.726562 183.660156 142.457031 179.082031 C 142.257812 175.753906 142.070312 172.347656 142.984375 169.140625 C 144.519531 163.753906 148.933594 159.671875 151.222656 154.554688 C 153.292969 149.929688 154.199219 140.652344 150.570312 136.378906 C 148.40625 133.828125 148.335938 134.601562 145.703125 137.386719 C 140.652344 142.734375 136.4375 147.742188 129.90625 151.449219 C 128.671875 152.148438 127.394531 152.792969 126.269531 153.660156 C 121.011719 157.703125 113.636719 204.628906 112.636719 211.675781 C 111.125 222.351562 113.875 234.085938 108.484375 243.429688 C 106.605469 246.683594 103.867188 249.347656 101.171875 251.964844 C 93.3125 259.585938 85.425781 267.230469 76.707031 273.882812 C 76.113281 274.335938 75.503906 274.804688 74.890625 275.273438 C 83.554688 287.183594 94.714844 297.230469 107.667969 304.5625 C 112.757812 307.199219 117.945312 309.582031 123.210938 311.714844 C 123.660156 311.875 124.113281 312.039062 124.566406 312.195312 C 126.722656 312.9375 128.914062 313.617188 131.132812 314.21875 C 135.421875 308.769531 139.640625 303.269531 143.789062 297.710938 C 146.496094 294.085938 148.960938 289.28125 152.113281 286.105469 " fill-opacity="1" fill-rule="nonzero"/><path fill="rgb(87.838745%, 58.81958%, 33.329773%)" d="M 242.523438 235.316406 C 246.585938 231.808594 249.71875 227.375 252.804688 222.988281 C 253.792969 221.582031 254.796875 220.144531 255.285156 218.503906 C 255.773438 216.855469 255.660156 214.9375 254.570312 213.609375 C 253.066406 211.777344 250.351562 211.660156 247.980469 211.691406 C 246.425781 211.714844 244.871094 211.734375 243.316406 211.757812 C 242.445312 211.769531 241.550781 211.785156 240.75 212.132812 C 239.773438 212.558594 239.074219 213.421875 238.410156 214.253906 C 235.671875 217.6875 232.933594 221.121094 230.199219 224.554688 C 228.21875 227.042969 226.203125 229.582031 225.117188 232.566406 C 224.027344 235.550781 224.003906 239.109375 225.851562 241.695312 C 231.1875 249.167969 238.472656 238.8125 242.523438 235.316406 " fill-opacity="1" fill-rule="nonzero"/><path fill="rgb(94.509888%, 68.238831%, 45.098877%)" d="M 225.378906 229.238281 C 224.925781 229.179688 224.46875 229.144531 224.007812 229.136719 C 223.113281 229.128906 222.203125 229.222656 221.351562 229.550781 C 217.265625 231.136719 211.5 240.097656 215.992188 244.480469 C 216.726562 245.199219 217.621094 245.632812 218.507812 246.039062 C 221.9375 247.613281 226.25 250.792969 230.074219 249.871094 C 233.847656 248.960938 235.6875 243.519531 237.320312 239.851562 C 237.410156 239.652344 237.5 239.445312 237.503906 239.21875 C 237.503906 238.96875 237.402344 238.742188 237.296875 238.527344 C 234.957031 233.796875 229.917969 229.84375 225.378906 229.238281 " fill-opacity="1" fill-rule="nonzero"/><path fill="rgb(94.898987%, 58.039856%, 46.269226%)" d="M 147.789062 294.6875 L 99.214844 253.714844 C 98.71875 253.316406 97.988281 253.394531 97.589844 253.890625 L 68.273438 278.921875 C 78.957031 301.917969 97.367188 320.867188 120.390625 332.0625 L 147.96875 296.3125 C 148.367188 295.816406 148.289062 295.085938 147.789062 294.6875 " fill-opacity="1" fill-rule="nonzero"/><path fill="rgb(87.838745%, 58.81958%, 33.329773%)" d="M 232.4375 185.167969 C 228.925781 185.261719 225.035156 185.578125 223.519531 189.121094 C 221.164062 194.621094 225.046875 199.4375 227.804688 203.945312 C 228.980469 205.871094 230.757812 207.628906 232.996094 207.933594 C 234.085938 208.082031 235.195312 207.871094 236.238281 207.519531 C 239.226562 206.515625 241.632812 204.402344 244.484375 203.125 C 246.929688 202.03125 249.761719 201.632812 252.050781 200.210938 C 254.429688 198.738281 255.964844 195.996094 255.972656 193.203125 C 256.011719 184.035156 238.351562 185.007812 232.4375 185.167969 " fill-opacity="1" fill-rule="nonzero"/><path fill="rgb(48.239136%, 63.919067%, 89.7995%)" d="M 226.550781 245.652344 C 232.179688 245.652344 236.761719 240.757812 236.761719 234.746094 L 236.761719 110.101562 C 236.761719 104.089844 232.179688 99.199219 226.550781 99.199219 L 163.394531 99.199219 C 157.761719 99.199219 153.183594 104.089844 153.183594 110.101562 L 153.183594 234.746094 C 153.183594 240.757812 157.761719 245.652344 163.394531 245.652344 L 226.550781 245.652344 " fill-opacity="1" fill-rule="nonzero"/><path fill="rgb(100%, 100%, 100%)" d="M 176.882812 102.796875 L 213.0625 102.796875 C 224.289062 102.796875 233.390625 111.882812 233.390625 123.09375 L 233.390625 221.753906 C 233.390625 232.964844 224.289062 242.054688 213.0625 242.054688 L 176.882812 242.054688 C 165.652344 242.054688 156.550781 232.964844 156.550781 221.753906 L 156.550781 123.09375 C 156.550781 111.882812 165.652344 102.796875 176.882812 102.796875 " fill-opacity="1" fill-rule="nonzero"/><path fill="rgb(58.428955%, 70.979309%, 91.758728%)" d="M 216.367188 210.277344 C 212.992188 221.890625 200.679688 228.617188 188.863281 225.300781 C 177.046875 221.984375 170.203125 209.878906 173.578125 198.265625 C 176.953125 186.652344 189.265625 179.925781 201.082031 183.242188 C 212.894531 186.554688 219.738281 198.660156 216.367188 210.277344 " fill-opacity="1" fill-rule="nonzero"/><path fill="rgb(100%, 100%, 100%)" d="M 205.574219 194.492188 C 205.574219 194.492188 205.503906 192.585938 202.882812 191.359375 C 202.882812 191.359375 202.808594 191.335938 202.703125 191.386719 L 202.839844 191.003906 C 202.867188 190.921875 202.824219 190.835938 202.742188 190.804688 L 200.929688 190.1875 C 200.847656 190.160156 200.757812 190.199219 200.730469 190.28125 L 197.976562 198.058594 C 197.945312 198.136719 197.992188 198.226562 198.070312 198.253906 L 199.886719 198.875 C 199.96875 198.902344 200.058594 198.859375 200.085938 198.78125 L 200.199219 198.460938 C 200.53125 198.820312 201.542969 198.980469 201.742188 199.28125 C 202.152344 199.90625 201.8125 201.148438 201.40625 201.683594 C 201.40625 201.683594 198.007812 206.167969 197.65625 206.640625 C 197.652344 206.644531 197.652344 206.648438 197.648438 206.652344 C 197.648438 206.652344 197.644531 206.65625 197.644531 206.660156 C 197.292969 207.132812 194 211.695312 194 211.695312 C 193.605469 212.238281 192.511719 212.9375 191.78125 212.75 C 191.425781 212.660156 190.960938 211.761719 190.511719 211.5625 L 190.785156 211.355469 C 190.855469 211.304688 190.867188 211.207031 190.816406 211.140625 L 189.65625 209.632812 C 189.605469 209.566406 189.503906 209.554688 189.433594 209.605469 L 182.757812 214.578125 C 182.691406 214.628906 182.675781 214.726562 182.726562 214.792969 L 183.886719 216.300781 C 183.941406 216.367188 184.039062 216.378906 184.109375 216.328125 L 184.4375 216.082031 C 184.417969 216.199219 184.464844 216.261719 184.464844 216.261719 C 186.460938 218.332031 188.328125 217.808594 188.328125 217.808594 C 196.226562 216.492188 200.910156 209.378906 201.085938 209.105469 C 201.296875 208.859375 206.734375 202.285156 205.574219 194.492188 " fill-opacity="1" fill-rule="nonzero"/><path fill="rgb(94.898987%, 43.919373%, 27.449036%)" d="M 173.425781 161.5625 C 173.425781 162.8125 173.472656 163.660156 173.566406 164.101562 C 173.648438 164.542969 173.816406 164.898438 174.070312 165.171875 C 174.277344 165.433594 174.550781 165.644531 174.886719 165.808594 C 175.21875 166 175.613281 166.097656 176.074219 166.097656 C 176.542969 166.097656 176.949219 166 177.289062 165.808594 C 177.617188 165.644531 177.875 165.433594 178.070312 165.171875 C 178.324219 164.898438 178.5 164.542969 178.59375 164.101562 C 178.683594 163.660156 178.726562 162.8125 178.726562 161.5625 C 178.726562 160.316406 178.683594 159.464844 178.59375 159.011719 C 178.5 158.582031 178.324219 158.226562 178.070312 157.957031 C 177.875 157.695312 177.617188 157.476562 177.289062 157.300781 C 176.949219 157.132812 176.542969 157.042969 176.074219 157.03125 C 175.613281 157.042969 175.21875 157.132812 174.886719 157.300781 C 174.550781 157.476562 174.277344 157.695312 174.070312 157.957031 C 173.816406 158.226562 173.648438 158.582031 173.566406 159.011719 C 173.472656 159.464844 173.425781 160.316406 173.425781 161.5625 Z M 171.457031 161.5625 C 171.457031 160.089844 171.5 159.101562 171.589844 158.601562 C 171.683594 158.101562 171.828125 157.695312 172.023438 157.386719 C 172.335938 156.800781 172.839844 156.277344 173.53125 155.820312 C 174.210938 155.355469 175.058594 155.117188 176.074219 155.105469 C 177.105469 155.117188 177.960938 155.355469 178.648438 155.820312 C 179.328125 156.277344 179.816406 156.800781 180.121094 157.386719 C 180.339844 157.695312 180.488281 158.101562 180.570312 158.601562 C 180.648438 159.101562 180.6875 160.089844 180.6875 161.5625 C 180.6875 163.015625 180.648438 164 180.570312 164.511719 C 180.488281 165.023438 180.339844 165.433594 180.121094 165.738281 C 179.816406 166.328125 179.328125 166.84375 178.648438 167.289062 C 177.960938 167.753906 177.105469 168 176.074219 168.023438 C 175.058594 168 174.210938 167.753906 173.53125 167.289062 C 172.839844 166.84375 172.335938 166.328125 172.023438 165.738281 C 171.929688 165.546875 171.84375 165.363281 171.765625 165.191406 C 171.695312 165.011719 171.636719 164.785156 171.589844 164.511719 C 171.5 164 171.457031 163.015625 171.457031 161.5625 " fill-opacity="1" fill-rule="nonzero"/><path fill="rgb(94.898987%, 43.919373%, 27.449036%)" d="M 182.804688 158.871094 L 184.660156 158.871094 L 184.660156 159.828125 L 184.695312 159.828125 C 185.304688 159.113281 186.101562 158.757812 187.089844 158.757812 C 187.851562 158.757812 188.550781 159.023438 189.183594 159.550781 C 189.808594 160.085938 190.136719 160.871094 190.164062 161.902344 L 190.164062 167.917969 L 188.3125 167.917969 L 188.3125 162.53125 C 188.3125 161.898438 188.140625 161.414062 187.796875 161.085938 C 187.460938 160.746094 187.027344 160.578125 186.496094 160.578125 C 185.960938 160.578125 185.527344 160.746094 185.183594 161.085938 C 184.832031 161.414062 184.660156 161.898438 184.660156 162.53125 L 184.660156 167.917969 L 182.804688 167.917969 L 182.804688 158.871094 " fill-opacity="1" fill-rule="nonzero"/><path fill="rgb(94.898987%, 43.919373%, 27.449036%)" d="M 192.558594 155.210938 L 194.414062 155.210938 L 194.414062 165.582031 C 194.414062 165.996094 194.644531 166.203125 195.105469 166.203125 L 195.742188 166.203125 L 195.742188 167.917969 L 194.917969 167.917969 C 194.246094 167.917969 193.6875 167.753906 193.25 167.421875 C 192.789062 167.085938 192.558594 166.519531 192.558594 165.722656 L 192.558594 155.210938 " fill-opacity="1" fill-rule="nonzero"/><path fill="rgb(94.898987%, 43.919373%, 27.449036%)" d="M 197.296875 158.871094 L 199.148438 158.871094 L 199.148438 167.917969 L 197.296875 167.917969 Z M 197.296875 155.210938 L 199.148438 155.210938 L 199.148438 157.03125 L 197.296875 157.03125 L 197.296875 155.210938 " fill-opacity="1" fill-rule="nonzero"/><path fill="rgb(94.898987%, 43.919373%, 27.449036%)" d="M 201.597656 158.871094 L 203.449219 158.871094 L 203.449219 159.828125 L 203.484375 159.828125 C 204.09375 159.113281 204.890625 158.757812 205.878906 158.757812 C 206.640625 158.757812 207.339844 159.023438 207.972656 159.550781 C 208.597656 160.085938 208.925781 160.871094 208.957031 161.902344 L 208.957031 167.917969 L 207.101562 167.917969 L 207.101562 162.53125 C 207.101562 161.898438 206.929688 161.414062 206.589844 161.085938 C 206.25 160.746094 205.816406 160.578125 205.285156 160.578125 C 204.753906 160.578125 204.316406 160.746094 203.972656 161.085938 C 203.625 161.414062 203.449219 161.898438 203.449219 162.53125 L 203.449219 167.917969 L 201.597656 167.917969 L 201.597656 158.871094 " fill-opacity="1" fill-rule="nonzero"/><path fill="rgb(94.898987%, 43.919373%, 27.449036%)" d="M 216.632812 162.585938 C 216.609375 161.878906 216.417969 161.347656 216.058594 160.988281 C 215.703125 160.644531 215.246094 160.472656 214.691406 160.472656 C 214.136719 160.472656 213.683594 160.644531 213.328125 160.988281 C 212.976562 161.347656 212.785156 161.878906 212.75 162.585938 Z M 212.75 164.082031 C 212.75 164.808594 212.964844 165.363281 213.390625 165.738281 C 213.785156 166.125 214.304688 166.316406 214.949219 166.316406 C 215.699219 166.316406 216.371094 166.019531 216.964844 165.433594 L 218.300781 166.558594 C 217.363281 167.546875 216.257812 168.035156 214.984375 168.023438 C 214.5 168.023438 214.027344 167.953125 213.566406 167.8125 C 213.335938 167.738281 213.109375 167.636719 212.894531 167.507812 C 212.664062 167.398438 212.445312 167.261719 212.246094 167.097656 C 211.855469 166.761719 211.539062 166.292969 211.296875 165.6875 C 211.03125 165.105469 210.898438 164.351562 210.898438 163.421875 C 210.898438 162.527344 211.011719 161.78125 211.242188 161.1875 C 211.472656 160.585938 211.769531 160.109375 212.128906 159.761719 C 212.496094 159.40625 212.90625 159.148438 213.363281 158.992188 C 213.8125 158.835938 214.253906 158.757812 214.691406 158.757812 C 215.746094 158.769531 216.632812 159.109375 217.363281 159.777344 C 218.101562 160.457031 218.476562 161.390625 218.488281 162.585938 L 218.488281 164.082031 L 212.75 164.082031 " fill-opacity="1" fill-rule="nonzero"/><path fill="rgb(94.898987%, 43.919373%, 27.449036%)" d="M 172.554688 148.710938 L 174.898438 148.710938 C 175.996094 148.710938 176.792969 148.339844 177.289062 147.601562 C 177.507812 147.328125 177.648438 146.984375 177.707031 146.566406 C 177.761719 146.152344 177.789062 145.378906 177.789062 144.246094 C 177.789062 143.140625 177.761719 142.351562 177.707031 141.875 C 177.636719 141.398438 177.46875 141.011719 177.203125 140.714844 C 176.660156 139.976562 175.890625 139.621094 174.898438 139.644531 L 172.554688 139.644531 Z M 170.59375 137.820312 L 175.117188 137.820312 C 176.867188 137.832031 178.179688 138.546875 179.054688 139.96875 C 179.367188 140.441406 179.566406 140.941406 179.648438 141.464844 C 179.714844 141.988281 179.746094 142.890625 179.746094 144.175781 C 179.746094 145.542969 179.695312 146.496094 179.597656 147.035156 C 179.546875 147.308594 179.476562 147.554688 179.382812 147.769531 C 179.28125 147.976562 179.160156 148.195312 179.019531 148.421875 C 178.640625 149.019531 178.113281 149.515625 177.441406 149.902344 C 176.773438 150.320312 175.953125 150.53125 174.984375 150.53125 L 170.59375 150.53125 L 170.59375 137.820312 " fill-opacity="1" fill-rule="nonzero"/><path fill="rgb(94.898987%, 43.919373%, 27.449036%)" d="M 187.152344 146.015625 C 187.152344 145.371094 187.121094 144.898438 187.0625 144.605469 C 187.003906 144.320312 186.882812 144.070312 186.699219 143.855469 C 186.5625 143.652344 186.363281 143.492188 186.09375 143.375 C 185.84375 143.253906 185.546875 143.191406 185.210938 143.191406 C 184.894531 143.191406 184.605469 143.253906 184.339844 143.375 C 184.085938 143.492188 183.878906 143.652344 183.71875 143.855469 C 183.558594 144.070312 183.445312 144.320312 183.375 144.605469 C 183.300781 144.898438 183.269531 145.363281 183.269531 146 C 183.269531 146.625 183.300781 147.085938 183.375 147.375 C 183.445312 147.671875 183.558594 147.933594 183.71875 148.160156 C 183.878906 148.335938 184.085938 148.488281 184.339844 148.621094 C 184.605469 148.75 184.894531 148.8125 185.210938 148.8125 C 185.546875 148.8125 185.84375 148.75 186.09375 148.621094 C 186.363281 148.488281 186.5625 148.335938 186.699219 148.160156 C 186.882812 147.933594 187.003906 147.671875 187.0625 147.375 C 187.121094 147.085938 187.152344 146.632812 187.152344 146.015625 Z M 181.414062 146 C 181.414062 145.046875 181.492188 144.3125 181.652344 143.800781 C 181.820312 143.300781 182.074219 142.882812 182.414062 142.539062 C 182.671875 142.234375 183.023438 141.964844 183.480469 141.726562 C 183.929688 141.5 184.503906 141.382812 185.210938 141.371094 C 185.9375 141.382812 186.523438 141.5 186.972656 141.726562 C 187.417969 141.964844 187.761719 142.234375 188.003906 142.539062 C 188.367188 142.882812 188.628906 143.300781 188.78125 143.800781 C 188.929688 144.3125 189.003906 145.046875 189.003906 146 C 189.003906 146.953125 188.929688 147.679688 188.78125 148.179688 C 188.628906 148.675781 188.367188 149.109375 188.003906 149.476562 C 187.882812 149.609375 187.738281 149.742188 187.566406 149.867188 C 187.414062 150.015625 187.214844 150.136719 186.972656 150.242188 C 186.523438 150.492188 185.9375 150.625 185.210938 150.636719 C 184.503906 150.625 183.929688 150.492188 183.480469 150.242188 C 183.023438 150.015625 182.671875 149.761719 182.414062 149.476562 C 182.074219 149.109375 181.820312 148.675781 181.652344 148.179688 C 181.492188 147.679688 181.414062 146.953125 181.414062 146 " fill-opacity="1" fill-rule="nonzero"/><path fill="rgb(94.898987%, 43.919373%, 27.449036%)" d="M 197.722656 149.066406 C 197.320312 149.519531 196.847656 149.890625 196.300781 150.175781 C 195.757812 150.46875 195.128906 150.625 194.414062 150.636719 C 193.324219 150.636719 192.371094 150.273438 191.550781 149.546875 C 190.699219 148.820312 190.261719 147.644531 190.238281 146.015625 C 190.261719 144.371094 190.699219 143.179688 191.550781 142.441406 C 192.371094 141.714844 193.324219 141.359375 194.414062 141.371094 C 195.128906 141.382812 195.757812 141.527344 196.300781 141.804688 C 196.847656 142.089844 197.320312 142.472656 197.722656 142.949219 L 196.355469 144.140625 C 195.886719 143.53125 195.265625 143.214844 194.484375 143.191406 C 192.910156 143.167969 192.113281 144.109375 192.089844 146.015625 C 192.113281 147.910156 192.910156 148.84375 194.484375 148.8125 C 195.265625 148.804688 195.886719 148.488281 196.355469 147.871094 L 197.722656 149.066406 " fill-opacity="1" fill-rule="nonzero"/><path fill="rgb(94.898987%, 43.919373%, 27.449036%)" d="M 199.113281 138.726562 L 200.964844 138.726562 L 200.964844 141.484375 L 202.3125 141.484375 L 202.3125 142.867188 L 200.964844 142.867188 L 200.964844 148.144531 C 200.953125 148.601562 201.171875 148.824219 201.621094 148.8125 L 202.3125 148.8125 L 202.3125 150.53125 L 201.347656 150.53125 C 200.695312 150.53125 200.164062 150.332031 199.75 149.9375 C 199.324219 149.5625 199.113281 149.015625 199.113281 148.300781 L 199.113281 142.867188 L 198.191406 142.867188 L 198.191406 141.484375 L 199.113281 141.484375 L 199.113281 138.726562 " fill-opacity="1" fill-rule="nonzero"/><path fill="rgb(94.898987%, 43.919373%, 27.449036%)" d="M 209.335938 146.015625 C 209.335938 145.371094 209.308594 144.898438 209.25 144.605469 C 209.191406 144.320312 209.066406 144.070312 208.882812 143.855469 C 208.75 143.652344 208.546875 143.492188 208.28125 143.375 C 208.027344 143.253906 207.730469 143.191406 207.394531 143.191406 C 207.082031 143.191406 206.792969 143.253906 206.527344 143.375 C 206.273438 143.492188 206.066406 143.652344 205.90625 143.855469 C 205.746094 144.070312 205.628906 144.320312 205.558594 144.605469 C 205.488281 144.898438 205.453125 145.363281 205.453125 146 C 205.453125 146.625 205.488281 147.085938 205.558594 147.375 C 205.628906 147.671875 205.746094 147.933594 205.90625 148.160156 C 206.066406 148.335938 206.273438 148.488281 206.527344 148.621094 C 206.792969 148.75 207.082031 148.8125 207.394531 148.8125 C 207.730469 148.8125 208.027344 148.75 208.28125 148.621094 C 208.546875 148.488281 208.75 148.335938 208.882812 148.160156 C 209.066406 147.933594 209.191406 147.671875 209.25 147.375 C 209.308594 147.085938 209.335938 146.632812 209.335938 146.015625 Z M 203.601562 146 C 203.601562 145.046875 203.679688 144.3125 203.839844 143.800781 C 204.003906 143.300781 204.257812 142.882812 204.601562 142.539062 C 204.855469 142.234375 205.210938 141.964844 205.664062 141.726562 C 206.117188 141.5 206.691406 141.382812 207.394531 141.371094 C 208.121094 141.382812 208.710938 141.5 209.160156 141.726562 C 209.601562 141.964844 209.945312 142.234375 210.1875 142.539062 C 210.554688 142.882812 210.816406 143.300781 210.96875 143.800781 C 211.117188 144.3125 211.191406 145.046875 211.191406 146 C 211.191406 146.953125 211.117188 147.679688 210.96875 148.179688 C 210.816406 148.675781 210.554688 149.109375 210.1875 149.476562 C 210.070312 149.609375 209.925781 149.742188 209.753906 149.867188 C 209.601562 150.015625 209.402344 150.136719 209.160156 150.242188 C 208.710938 150.492188 208.121094 150.625 207.394531 150.636719 C 206.691406 150.625 206.117188 150.492188 205.664062 150.242188 C 205.210938 150.015625 204.855469 149.761719 204.601562 149.476562 C 204.257812 149.109375 204.003906 148.675781 203.839844 148.179688 C 203.679688 147.679688 203.601562 146.953125 203.601562 146 " fill-opacity="1" fill-rule="nonzero"/><path fill="rgb(94.898987%, 43.919373%, 27.449036%)" d="M 213.132812 141.484375 L 214.984375 141.484375 L 214.984375 142.441406 L 215.019531 142.441406 C 215.628906 141.726562 216.425781 141.371094 217.414062 141.371094 C 218.152344 141.382812 218.796875 141.613281 219.347656 142.066406 L 218 143.644531 C 217.609375 143.34375 217.203125 143.191406 216.785156 143.191406 C 216.3125 143.191406 215.90625 143.34375 215.570312 143.644531 C 215.191406 143.941406 214.996094 144.421875 214.984375 145.082031 L 214.984375 150.53125 L 213.132812 150.53125 L 213.132812 141.484375 " fill-opacity="1" fill-rule="nonzero"/><path fill="rgb(94.509888%, 68.238831%, 45.098877%)" d="M 240.039062 219.925781 L 246.511719 221.949219 C 250.617188 223.234375 255.03125 220.929688 256.316406 216.832031 C 257.601562 212.734375 255.292969 208.328125 251.191406 207.042969 L 244.714844 205.019531 C 240.609375 203.734375 236.199219 206.039062 234.910156 210.136719 C 233.625 214.238281 235.933594 218.640625 240.039062 219.925781 " fill-opacity="1" fill-rule="nonzero"/><path fill="rgb(94.509888%, 68.238831%, 45.098877%)" d="M 234.421875 233.054688 C 236.140625 237.332031 242.414062 246.847656 247.71875 241.9375 C 247.726562 241.925781 249.199219 240.566406 249.199219 240.566406 C 251.757812 238.199219 251.90625 234.171875 249.535156 231.617188 C 249.535156 231.617188 242.574219 224.121094 242.574219 224.121094 C 240.09375 221.449219 233.570312 221.183594 232.683594 225.453125 C 232.265625 227.460938 233.464844 230.679688 234.421875 233.054688 " fill-opacity="1" fill-rule="nonzero"/><path fill="rgb(94.509888%, 68.238831%, 45.098877%)" d="M 243.359375 200.144531 C 243.359375 200.144531 248.46875 200.144531 248.476562 200.144531 C 256.894531 200.144531 259.929688 189.261719 251.992188 186.011719 C 245.890625 183.511719 234.988281 184.417969 234.988281 192.246094 L 234.988281 192.425781 C 234.988281 196.671875 238.753906 200.144531 243.359375 200.144531 " fill-opacity="1" fill-rule="nonzero"/><path fill="rgb(94.509888%, 68.238831%, 45.098877%)" d="M 241.90625 180.851562 C 241.90625 180.851562 246.277344 178.207031 246.28125 178.203125 C 253.480469 173.84375 250.421875 162.96875 241.945312 164.296875 C 235.429688 165.320312 226.578125 171.738281 230.644531 178.433594 L 230.738281 178.585938 C 232.945312 182.214844 237.972656 183.234375 241.90625 180.851562 " fill-opacity="1" fill-rule="nonzero"/><path fill="rgb(100%, 74.119568%, 50.979614%)" d="M 314.773438 354.691406 C 315.453125 350.722656 316.042969 347.292969 316.328125 345.636719 C 317.046875 341.46875 315.726562 336.828125 314.078125 332.894531 C 311.785156 327.40625 309.359375 322.480469 308.40625 316.554688 C 307.542969 311.1875 307.472656 305.605469 307.585938 300.140625 C 307.792969 290.1875 308.871094 280.070312 306.601562 270.375 C 305.503906 265.695312 304.023438 260.761719 301.378906 256.707031 C 298.984375 253.035156 293.710938 248.785156 288.828125 248.496094 C 284.660156 248.253906 284.339844 248.332031 281.238281 245.921875 C 276.753906 242.4375 268.292969 239.523438 262.503906 242.945312 C 255.625 239.269531 248.28125 237.230469 241.253906 242.953125 C 239.800781 244.136719 238.167969 247.492188 236.390625 248.089844 C 231.996094 249.558594 230.105469 243.652344 229.058594 240.804688 C 225.570312 231.316406 220.519531 222.503906 216.363281 213.421875 C 213.882812 208.015625 212.019531 198.039062 206.492188 195.097656 C 201.925781 192.667969 197.863281 196.460938 197.152344 200.738281 C 196.203125 206.414062 198.234375 211.699219 200.578125 216.65625 C 202.710938 221.160156 204.292969 225.894531 205.894531 230.609375 C 211.3125 246.542969 219.839844 262.519531 217.015625 280.125 C 215.324219 290.691406 203.203125 281.765625 200.382812 277.386719 C 195.046875 269.082031 192.300781 258.75 183.296875 253.238281 C 180.804688 251.714844 170.910156 247.40625 168.503906 250.964844 C 168.503906 250.96875 168.503906 250.96875 168.503906 250.96875 C 166.023438 254.648438 174.609375 264.019531 176.089844 267.417969 C 181.546875 279.933594 184.578125 293.222656 194.101562 303.300781 C 209.164062 319.242188 225.585938 333.902344 246.1875 343.078125 C 251.867188 345.609375 257.300781 345.726562 261.566406 350.5625 C 265.171875 354.652344 267.941406 359.699219 271.15625 364.199219 C 272.507812 364.363281 273.878906 364.496094 275.277344 364.585938 C 290.410156 365.574219 304.183594 362.042969 314.773438 354.691406 " fill-opacity="1" fill-rule="nonzero"/><g clip-path="url(#clip-1)"><path fill="rgb(94.898987%, 58.039856%, 46.269226%)" d="M 328.1875 350.445312 C 325.59375 345.742188 316.277344 334.664062 314.226562 331.449219 C 305.695312 335.523438 297.257812 339.785156 288.914062 344.234375 C 280.878906 348.519531 272.789062 352.15625 265.652344 357.78125 C 265.953125 358.691406 269.765625 366.558594 273.566406 374.128906 C 291.789062 376.363281 319.238281 366.769531 328.1875 350.445312 " fill-opacity="1" fill-rule="nonzero"/></g><path fill="rgb(69.018555%, 78.42865%, 93.728638%)" d="M 130.742188 119.980469 L 157.664062 119.980469 L 163.144531 139.644531 Z M 130.742188 119.980469 " fill-opacity="1" fill-rule="nonzero"/><g clip-path="url(#clip-2)"><path fill="rgb(69.018555%, 78.42865%, 93.728638%)" d="M 171.277344 8.441406 L 60.558594 8.441406 C 43.816406 8.441406 30.242188 22.796875 30.242188 40.507812 L 30.242188 93.195312 C 30.242188 110.90625 43.816406 125.261719 60.558594 125.261719 L 171.277344 125.261719 C 188.023438 125.261719 201.597656 110.90625 201.597656 93.195312 L 201.597656 40.507812 C 201.597656 22.796875 188.023438 8.441406 171.277344 8.441406 " fill-opacity="1" fill-rule="nonzero"/></g><path fill="rgb(82.348633%, 83.918762%, 86.669922%)" d="M 175.21875 26.863281 C 175.21875 22.847656 171.957031 19.585938 167.929688 19.585938 L 127.109375 19.585938 C 123.082031 19.585938 119.820312 22.847656 119.820312 26.863281 L 119.820312 87.996094 C 119.820312 92.011719 123.082031 95.269531 127.109375 95.269531 L 167.929688 95.269531 C 171.957031 95.269531 175.21875 92.011719 175.21875 87.996094 L 175.21875 26.863281 " fill-opacity="1" fill-rule="nonzero"/><path fill="rgb(100%, 100%, 100%)" d="M 173.113281 29.1875 C 173.113281 25.472656 170.097656 22.464844 166.378906 22.464844 L 128.660156 22.464844 C 124.941406 22.464844 121.925781 25.472656 121.925781 29.1875 L 121.925781 85.671875 C 121.925781 89.382812 124.941406 92.394531 128.660156 92.394531 L 166.378906 92.394531 C 170.097656 92.394531 173.113281 89.382812 173.113281 85.671875 L 173.113281 29.1875 " fill-opacity="1" fill-rule="nonzero"/><path fill="rgb(82.348633%, 83.918762%, 86.669922%)" d="M 144.292969 33.457031 L 127.964844 33.457031 L 127.964844 46.851562 L 144.292969 46.851562 L 144.292969 33.457031 " fill-opacity="1" fill-rule="nonzero"/><path fill="rgb(73.728943%, 7.058716%, 21.569824%)" d="M 141.820312 44.394531 C 141.792969 44.394531 141.769531 44.394531 141.746094 44.390625 C 141.335938 44.363281 140.976562 44.109375 140.816406 43.734375 C 140.53125 43.078125 140.28125 42.425781 140.035156 41.796875 C 139.574219 40.605469 139.136719 39.484375 138.519531 38.34375 C 138.234375 37.8125 138.429688 37.152344 138.964844 36.863281 C 139.496094 36.578125 140.15625 36.777344 140.445312 37.304688 C 141.125 38.566406 141.609375 39.808594 142.074219 41.003906 C 142.082031 41.023438 142.089844 41.046875 142.097656 41.066406 C 142.738281 40.300781 143.445312 39.585938 144.136719 38.882812 C 144.996094 38.003906 145.808594 37.179688 146.484375 36.292969 C 146.851562 35.8125 147.535156 35.71875 148.015625 36.082031 C 148.5 36.445312 148.589844 37.132812 148.226562 37.613281 C 147.464844 38.609375 146.566406 39.523438 145.695312 40.410156 C 144.5625 41.566406 143.492188 42.652344 142.753906 43.867188 C 142.554688 44.195312 142.199219 44.394531 141.820312 44.394531 " fill-opacity="1" fill-rule="nonzero"/><path fill="rgb(82.348633%, 83.918762%, 86.669922%)" d="M 144.292969 50.921875 L 127.964844 50.921875 L 127.964844 64.3125 L 144.292969 64.3125 L 144.292969 50.921875 " fill-opacity="1" fill-rule="nonzero"/><path fill="rgb(82.348633%, 83.918762%, 86.669922%)" d="M 144.292969 68.007812 L 127.964844 68.007812 L 127.964844 81.398438 L 144.292969 81.398438 L 144.292969 68.007812 " fill-opacity="1" fill-rule="nonzero"/><path fill="rgb(82.348633%, 83.918762%, 86.669922%)" d="M 167.074219 40.683594 L 149.148438 40.683594 L 149.148438 39.472656 L 167.074219 39.472656 L 167.074219 40.683594 " fill-opacity="1" fill-rule="nonzero"/><path fill="rgb(82.348633%, 83.918762%, 86.669922%)" d="M 167.074219 45.046875 L 149.148438 45.046875 L 149.148438 43.839844 L 167.074219 43.839844 L 167.074219 45.046875 " fill-opacity="1" fill-rule="nonzero"/><path fill="rgb(82.348633%, 83.918762%, 86.669922%)" d="M 167.074219 58.148438 L 149.148438 58.148438 L 149.148438 56.9375 L 167.074219 56.9375 L 167.074219 58.148438 " fill-opacity="1" fill-rule="nonzero"/><path fill="rgb(82.348633%, 83.918762%, 86.669922%)" d="M 167.074219 62.511719 L 149.148438 62.511719 L 149.148438 61.300781 L 167.074219 61.300781 L 167.074219 62.511719 " fill-opacity="1" fill-rule="nonzero"/><path fill="rgb(82.348633%, 83.918762%, 86.669922%)" d="M 167.074219 75.171875 L 149.148438 75.171875 L 149.148438 73.960938 L 167.074219 73.960938 L 167.074219 75.171875 " fill-opacity="1" fill-rule="nonzero"/><path fill="rgb(82.348633%, 83.918762%, 86.669922%)" d="M 167.074219 79.535156 L 149.148438 79.535156 L 149.148438 78.328125 L 167.074219 78.328125 L 167.074219 79.535156 " fill-opacity="1" fill-rule="nonzero"/><path fill="rgb(82.348633%, 86.669922%, 89.408875%)" d="M 161.515625 15.867188 L 132.648438 15.867188 L 132.648438 20.847656 L 161.515625 20.847656 L 161.515625 15.867188 " fill-opacity="1" fill-rule="nonzero"/><path fill="rgb(48.239136%, 63.919067%, 89.7995%)" d="M 151.027344 15.816406 C 151.027344 13.566406 149.199219 11.742188 146.941406 11.742188 C 144.691406 11.742188 142.863281 13.566406 142.863281 15.816406 C 142.863281 18.066406 144.691406 19.894531 146.941406 19.894531 C 149.199219 19.894531 151.027344 18.066406 151.027344 15.816406 " fill-opacity="1" fill-rule="nonzero"/><path fill="rgb(99.21875%, 83.529663%, 70.588684%)" d="M 75.101562 50.367188 C 75.117188 48.964844 75.417969 47.511719 76.289062 46.414062 C 76.714844 45.871094 77.265625 45.441406 77.851562 45.074219 C 79.214844 44.226562 80.722656 43.796875 82.3125 43.792969 C 84.011719 43.792969 85.707031 43.550781 87.375 44.050781 C 88.410156 44.363281 89.429688 44.996094 89.820312 46 C 90.074219 46.644531 90.035156 47.359375 90.011719 48.046875 C 89.960938 49.585938 89.988281 51.128906 90.097656 52.667969 C 90.136719 53.207031 90.1875 53.761719 90.441406 54.238281 C 90.746094 54.8125 91.300781 55.207031 91.84375 55.558594 C 92.957031 56.28125 94.125 56.914062 95.332031 57.460938 C 95.894531 57.714844 96.5 57.984375 96.804688 58.515625 C 96.953125 58.773438 97.015625 59.074219 97.0625 59.367188 C 97.273438 60.722656 97.277344 62.191406 96.847656 63.5 C 96 66.0625 94.734375 68.484375 93.109375 70.640625 C 92.390625 71.59375 91.59375 72.503906 90.617188 73.195312 C 88.105469 74.976562 84.683594 75.0625 81.746094 74.125 C 78.808594 73.1875 76.253906 71.347656 73.808594 69.472656 C 72.761719 68.671875 71.699219 67.828125 71.042969 66.683594 C 70.464844 65.675781 70.246094 64.511719 70.097656 63.363281 C 69.769531 60.839844 69.992188 58.230469 72.363281 56.828125 C 73.386719 56.222656 74.347656 55.488281 74.800781 54.34375 C 75.300781 53.085938 75.082031 51.679688 75.101562 50.367188 " fill-opacity="1" fill-rule="nonzero"/><path fill="rgb(98.039246%, 80.389404%, 66.668701%)" d="M 94.34375 35.792969 C 94.324219 35.199219 94.285156 34.546875 93.878906 34.113281 C 93.4375 33.640625 92.722656 33.585938 92.074219 33.558594 C 91.980469 33.558594 91.878906 33.554688 91.792969 33.589844 C 91.675781 33.640625 91.597656 33.753906 91.53125 33.863281 C 90.832031 35.03125 90.664062 36.441406 90.648438 37.804688 C 90.628906 39.15625 90.382812 40.832031 90.636719 42.15625 C 90.808594 43.042969 91.609375 43.699219 92.558594 43.570312 C 93.761719 43.40625 94.070312 41.207031 94.21875 40.191406 C 94.433594 38.738281 94.390625 37.257812 94.34375 35.792969 " fill-opacity="1" fill-rule="nonzero"/><path fill="rgb(98.039246%, 80.389404%, 66.668701%)" d="M 72.03125 34.632812 C 71.859375 34.066406 71.65625 33.445312 71.152344 33.128906 C 70.609375 32.785156 69.898438 32.910156 69.269531 33.046875 C 69.175781 33.066406 69.078125 33.089844 69.003906 33.148438 C 68.902344 33.226562 68.855469 33.355469 68.820312 33.476562 C 68.4375 34.785156 68.632812 36.191406 68.960938 37.511719 C 69.289062 38.828125 69.46875 40.507812 70.054688 41.726562 C 70.445312 42.542969 71.386719 42.972656 72.273438 42.613281 C 73.394531 42.148438 73.132812 39.945312 73.023438 38.917969 C 72.863281 37.457031 72.445312 36.039062 72.03125 34.632812 " fill-opacity="1" fill-rule="nonzero"/><path fill="rgb(98.039246%, 79.998779%, 68.629456%)" d="M 89.855469 25.140625 C 89.550781 24.414062 89.195312 23.671875 88.570312 23.191406 C 88.117188 22.847656 87.566406 22.664062 87.019531 22.507812 C 85.921875 22.183594 84.804688 21.914062 83.675781 21.703125 C 82.3125 21.449219 80.6875 21.445312 79.3125 21.703125 C 78.1875 21.914062 77.070312 22.183594 75.972656 22.507812 C 75.425781 22.664062 74.871094 22.847656 74.421875 23.191406 C 73.796875 23.671875 73.441406 24.414062 73.136719 25.140625 C 70.855469 30.628906 70.410156 36.722656 70.859375 42.648438 C 70.941406 43.738281 71.054688 44.835938 71.429688 45.863281 C 72.445312 48.667969 75.140625 50.429688 77.210938 52.578125 C 77.835938 53.230469 78.464844 53.960938 79.339844 54.203125 C 80.515625 54.519531 82.40625 54.539062 83.652344 54.203125 C 84.523438 53.960938 85.152344 53.230469 85.78125 52.578125 C 87.847656 50.429688 90.546875 48.667969 91.5625 45.863281 C 91.9375 44.835938 92.050781 43.738281 92.132812 42.648438 C 92.582031 36.722656 92.136719 30.628906 89.855469 25.140625 " fill-opacity="1" fill-rule="nonzero"/><path fill="rgb(100%, 100%, 100%)" d="M 91.164062 46.503906 C 90.558594 47.015625 89.945312 46.683594 90.523438 45.964844 C 90.855469 45.558594 91.199219 45.167969 91.460938 44.714844 C 91.738281 44.230469 91.929688 43.589844 92.316406 43.183594 C 92.519531 42.882812 92.734375 42.59375 92.941406 42.3125 C 93.316406 41.8125 93.667969 41.339844 93.945312 40.8125 C 94.417969 39.914062 94.535156 38.996094 94.265625 38.304688 C 94.082031 37.832031 93.453125 37.140625 93.226562 37.09375 C 92.925781 37.035156 92.46875 37.394531 92.097656 37.679688 C 91.90625 37.828125 91.722656 37.96875 91.546875 38.070312 C 91.371094 38.171875 91.148438 38.105469 91.050781 37.917969 C 90.953125 37.734375 91.015625 37.5 91.195312 37.398438 C 91.324219 37.324219 91.488281 37.199219 91.660156 37.066406 C 92.144531 36.691406 92.746094 36.222656 93.359375 36.339844 C 95.453125 36.746094 95.070312 39.851562 94.175781 41.074219 C 94.035156 41.265625 93.878906 41.445312 93.742188 41.648438 C 92.753906 43.121094 92.617188 45.273438 91.167969 46.503906 C 91.167969 46.503906 91.167969 46.503906 91.164062 46.503906 " fill-opacity="1" fill-rule="nonzero"/><path fill="rgb(100%, 100%, 100%)" d="M 72.996094 46.195312 C 73.796875 46.683594 74.605469 46.367188 73.839844 45.6875 C 73.402344 45.300781 72.949219 44.929688 72.605469 44.5 C 72.238281 44.039062 71.988281 43.429688 71.472656 43.042969 C 71.207031 42.761719 70.921875 42.488281 70.648438 42.21875 C 70.15625 41.746094 69.691406 41.296875 69.328125 40.800781 C 68.703125 39.945312 68.546875 39.074219 68.902344 38.417969 C 69.144531 37.972656 69.972656 37.3125 70.273438 37.269531 C 70.667969 37.21875 71.273438 37.554688 71.761719 37.824219 C 72.015625 37.964844 72.257812 38.101562 72.488281 38.195312 C 72.722656 38.292969 73.015625 38.226562 73.144531 38.050781 C 73.273438 37.875 73.1875 37.65625 72.953125 37.558594 C 72.785156 37.488281 72.566406 37.371094 72.339844 37.242188 C 71.703125 36.886719 70.90625 36.445312 70.097656 36.558594 C 69.21875 36.679688 68.234375 37.726562 68.007812 38.144531 C 67.539062 39.003906 67.710938 40.101562 68.476562 41.148438 C 68.878906 41.695312 69.390625 42.1875 69.882812 42.667969 C 70.148438 42.925781 70.429688 43.191406 70.679688 43.460938 C 71.304688 44.128906 71.96875 45.578125 72.992188 46.195312 C 72.992188 46.195312 72.992188 46.195312 72.996094 46.195312 " fill-opacity="1" fill-rule="nonzero"/><path fill="rgb(100%, 100%, 100%)" d="M 82.460938 54.082031 C 75.761719 54.082031 73.035156 46.925781 72.609375 43.992188 L 72.609375 37.378906 L 91.5625 37.378906 L 91.5625 43.992188 C 91.339844 49.113281 87.875 54.082031 82.460938 54.082031 " fill-opacity="1" fill-rule="nonzero"/><path fill="rgb(26.269531%, 19.60907%, 16.468811%)" d="M 64.429688 59.859375 C 64.394531 59.789062 64.410156 59.710938 64.433594 59.632812 C 64.519531 59.320312 64.667969 59.023438 64.867188 58.761719 C 64.347656 58.582031 64.101562 57.933594 64.234375 57.402344 C 64.363281 56.867188 64.777344 56.445312 65.234375 56.136719 C 65.320312 56.078125 65.417969 56.011719 65.460938 55.917969 C 65.523438 55.789062 65.476562 55.636719 65.429688 55.503906 C 65.324219 55.222656 65.203125 54.941406 65.167969 54.644531 C 65.132812 54.347656 65.199219 54.015625 65.417969 53.8125 C 65.5625 53.679688 65.753906 53.613281 65.933594 53.539062 C 66.878906 53.152344 67.730469 52.347656 68.394531 51.605469 C 68.542969 51.445312 68.617188 51.226562 68.707031 51.027344 C 69 50.367188 69.507812 49.808594 70.136719 49.453125 C 70.378906 49.316406 70.65625 49.191406 70.765625 48.933594 C 70.878906 48.671875 70.773438 48.371094 70.785156 48.082031 C 70.8125 47.386719 71.304688 46.847656 71.230469 46.105469 C 71.152344 45.320312 70.65625 45.253906 69.9375 45.242188 C 69.042969 45.230469 68.273438 44.304688 68.433594 43.425781 C 68.6875 42.003906 66.566406 41.019531 66.089844 39.652344 C 65.664062 38.445312 65.847656 37.078125 66.285156 35.953125 C 66.476562 35.460938 66.523438 34.820312 66.117188 34.480469 C 65.972656 34.355469 65.78125 34.285156 65.65625 34.140625 C 65.195312 33.589844 66.078125 32.769531 65.855469 32.085938 C 65.695312 31.585938 65.003906 31.371094 64.929688 30.851562 C 64.851562 30.296875 65.53125 29.941406 65.710938 29.410156 C 65.925781 28.769531 65.363281 28.078125 65.527344 27.425781 C 65.71875 26.664062 66.753906 26.421875 67.097656 25.710938 C 67.417969 25.042969 67.0625 24.082031 67.632812 23.605469 C 68.15625 23.167969 69.105469 23.507812 69.523438 22.972656 C 69.914062 22.476562 69.46875 21.664062 69.832031 21.144531 C 70.171875 20.65625 70.960938 20.78125 71.4375 20.417969 C 72.027344 19.972656 71.878906 19.03125 72.261719 18.394531 C 72.730469 17.613281 73.851562 17.53125 74.726562 17.796875 C 75.367188 17.992188 76.078125 18.316406 76.667969 18 C 77.195312 17.714844 77.378906 17.027344 77.867188 16.6875 C 78.363281 16.34375 79.039062 16.433594 79.617188 16.613281 C 80.195312 16.792969 80.78125 17.046875 81.382812 16.976562 C 81.777344 16.929688 82.140625 16.746094 82.511719 16.597656 C 83.273438 16.28125 84.125 16.101562 84.925781 16.300781 C 85.667969 16.488281 85.910156 17.191406 86.539062 17.425781 C 87.519531 17.789062 88.617188 17.515625 89.636719 18.046875 C 90.597656 18.542969 91.390625 19.410156 91.644531 20.457031 C 91.785156 21.042969 91.777344 21.707031 92.175781 22.160156 C 92.597656 22.644531 93.074219 22.902344 93.324219 23.53125 C 93.613281 24.257812 93.140625 25.152344 93.542969 25.804688 C 93.703125 26.058594 93.988281 26.210938 94.175781 26.445312 C 94.84375 27.292969 93.949219 28.484375 94.835938 29.21875 C 95.15625 29.484375 95.566406 29.78125 95.515625 30.195312 C 95.484375 30.445312 95.28125 30.648438 95.246094 30.898438 C 95.183594 31.375 95.722656 31.679688 95.992188 32.078125 C 96.328125 32.5625 96.25 33.226562 96.027344 33.773438 C 95.800781 34.320312 95.449219 34.804688 95.242188 35.355469 C 94.960938 36.109375 95.269531 36.585938 95.355469 37.296875 C 95.429688 37.933594 95.355469 38.832031 95.242188 39.464844 C 95.023438 40.664062 94.496094 41.820312 94.1875 43 C 93.996094 43.742188 93.863281 44.476562 93.789062 45.234375 C 93.625 46.859375 94.0625 46.5625 94.632812 47.851562 C 95.019531 48.734375 94.46875 49.546875 95.488281 50.164062 C 96.019531 50.480469 97.191406 50.957031 97.476562 51.550781 C 97.59375 51.804688 97.582031 52.09375 97.609375 52.371094 C 97.691406 53.125 98.257812 53.894531 98.828125 54.363281 C 99.328125 54.773438 99.996094 54.957031 100.070312 55.710938 C 100.09375 55.96875 100.039062 56.234375 100.117188 56.476562 C 100.246094 56.859375 100.648438 57.054688 100.953125 57.3125 C 101.257812 57.570312 101.476562 58.074219 101.179688 58.34375 C 101.097656 58.417969 100.972656 58.472656 100.953125 58.585938 C 100.925781 58.734375 101.09375 58.832031 101.1875 58.949219 C 101.527344 59.359375 101.027344 59.683594 100.667969 59.730469 C 100.277344 59.78125 99.628906 59.351562 99.273438 59.203125 C 97.527344 58.480469 95.792969 57.722656 94.085938 56.910156 C 93.371094 56.566406 92.738281 56.152344 92.054688 55.777344 C 91.425781 55.429688 90.726562 55.070312 90.460938 54.351562 C 90.019531 53.167969 90.207031 51.992188 90.109375 50.78125 C 90.0625 50.25 90.019531 49.703125 90.152344 49.1875 C 90.230469 48.894531 90.359375 48.617188 90.492188 48.339844 C 90.78125 47.726562 90.925781 47.011719 91.363281 46.472656 C 91.878906 45.839844 92.007812 45.414062 92.140625 44.570312 C 92.335938 43.328125 92.34375 42.230469 92.871094 41.046875 C 93.332031 40.019531 94.15625 38.648438 93.644531 37.515625 C 93.394531 36.96875 92.640625 36.941406 92.410156 36.335938 C 92.125 35.589844 92.007812 34.800781 91.90625 34.011719 C 91.808594 33.269531 91.5 32.652344 91.402344 31.914062 C 91.277344 30.929688 90.773438 29.964844 90.328125 29.074219 C 89.667969 27.398438 89.558594 25.195312 87.9375 24.40625 C 86.800781 23.855469 85.40625 24.304688 84.207031 23.90625 C 83.746094 23.75 83.332031 23.476562 82.867188 23.324219 C 81.382812 22.832031 79.816406 23.679688 78.476562 24.488281 C 77.515625 25.074219 76.554688 25.660156 75.589844 26.242188 C 75.207031 26.476562 74.816406 26.714844 74.527344 27.058594 C 73.625 28.148438 73.980469 29.972656 72.933594 30.925781 C 72.625 31.207031 72.214844 31.445312 71.820312 31.574219 C 71.535156 31.667969 71.207031 31.664062 71.296875 32.085938 C 71.324219 32.226562 71.421875 32.351562 71.445312 32.492188 C 71.480469 32.6875 71.386719 32.878906 71.273438 33.039062 C 71.160156 33.195312 71.015625 33.339844 70.9375 33.515625 C 70.765625 33.890625 70.84375 34.34375 70.855469 34.738281 C 70.875 35.460938 70.410156 36.035156 70.601562 36.746094 C 70.679688 37.042969 70.804688 37.332031 70.84375 37.636719 C 70.898438 38.058594 70.597656 38.328125 70.617188 38.769531 C 70.652344 39.667969 70.691406 40.570312 70.726562 41.472656 C 70.746094 42.003906 70.726562 42.632812 70.914062 43.136719 C 71.066406 43.53125 71.382812 43.855469 71.570312 44.246094 C 71.851562 44.832031 72.042969 45.460938 72.195312 46.09375 C 72.339844 46.722656 72.671875 47.367188 72.9375 47.957031 C 73.242188 48.640625 73.925781 49.355469 74.484375 49.855469 C 74.65625 50.015625 74.730469 50.253906 74.898438 50.417969 C 75.375 50.886719 75.238281 52.039062 75.191406 52.652344 C 75.128906 53.460938 74.914062 54.253906 74.453125 54.929688 C 74.15625 55.363281 73.75 55.710938 73.324219 56.023438 C 70.816406 57.902344 67.75 58.75 64.894531 59.910156 C 64.734375 59.976562 64.503906 60.015625 64.429688 59.859375 " fill-opacity="1" fill-rule="nonzero"/><path fill="rgb(48.239136%, 63.919067%, 89.7995%)" d="M 111.402344 85.457031 C 111.488281 72.644531 111.816406 70.820312 111.441406 68.851562 C 110.632812 64.628906 109.851562 62.996094 106.214844 61.71875 C 104.054688 60.960938 101.914062 60.140625 99.796875 59.265625 C 98.71875 58.824219 97.648438 58.363281 96.582031 57.894531 C 95.59375 57.460938 94.710938 56.875 93.691406 56.5 C 93.585938 57.460938 93.226562 58.609375 92.824219 59.472656 C 91.957031 61.324219 90.199219 62.734375 88.492188 63.617188 C 87.550781 64.105469 86.324219 64.539062 85.121094 64.78125 L 83.152344 69.273438 L 80.671875 64.746094 C 79.519531 64.496094 78.363281 64.082031 77.464844 63.617188 C 75.757812 62.734375 74 61.324219 73.132812 59.472656 C 72.726562 58.609375 73.429688 56.984375 73.324219 56.023438 C 72.300781 56.398438 70.359375 57.460938 69.375 57.894531 C 68.308594 58.363281 67.234375 58.824219 66.160156 59.265625 C 64.039062 60.140625 61.902344 60.960938 59.742188 61.71875 C 56.105469 62.996094 56 64.574219 55.554688 68.851562 C 54.417969 79.699219 56.253906 123.027344 56.195312 124.433594 L 111.785156 124.433594 C 111.785156 115.597656 111.308594 98.730469 111.402344 85.457031 " fill-opacity="1" fill-rule="nonzero"/><path fill="rgb(81.17981%, 81.959534%, 82.348633%)" d="M 77.578125 94.109375 C 77.425781 93.714844 77.101562 93.382812 76.75 93.457031 C 76.304688 93.554688 75.871094 93.933594 75.679688 94.34375 C 73.863281 94.734375 72.296875 94.429688 71.027344 93.421875 C 69.019531 91.832031 68.050781 88.753906 67.59375 86.453125 C 67.089844 83.921875 67.074219 81.746094 67.074219 81.722656 C 67.074219 81.511719 66.902344 81.339844 66.691406 81.339844 C 66.476562 81.339844 66.304688 81.511719 66.304688 81.726562 C 66.304688 81.816406 66.316406 83.988281 66.832031 86.589844 C 67.140625 88.125 67.558594 89.488281 68.078125 90.644531 C 68.738281 92.113281 69.570312 93.25 70.546875 94.027344 C 71.398438 94.699219 72.359375 95.105469 73.417969 95.234375 C 74.207031 95.332031 75.050781 95.28125 75.945312 95.078125 C 76.113281 95.15625 76.320312 95.199219 76.484375 95.21875 C 76.789062 95.25 77.21875 95.257812 77.476562 95.058594 C 77.71875 94.875 77.71875 94.46875 77.578125 94.109375 " fill-opacity="1" fill-rule="nonzero"/><path fill="rgb(81.17981%, 81.959534%, 82.348633%)" d="M 76.046875 81.625 C 76.046875 81.414062 75.871094 81.238281 75.660156 81.242188 C 75.445312 81.242188 75.273438 81.414062 75.273438 81.628906 C 75.273438 81.648438 75.273438 83.824219 74.785156 86.359375 C 74.339844 88.664062 73.390625 91.746094 71.390625 93.347656 C 70.125 94.359375 68.5625 94.679688 66.742188 94.296875 C 66.703125 94.289062 66.535156 93.964844 66.488281 93.914062 C 66.390625 93.804688 66.277344 93.710938 66.148438 93.632812 C 65.917969 93.496094 65.652344 93.429688 65.382812 93.480469 C 64.921875 93.578125 64.574219 94.421875 64.828125 94.832031 C 65.039062 95.171875 65.59375 95.214844 65.941406 95.175781 C 66.109375 95.15625 66.3125 95.113281 66.480469 95.03125 C 67.378906 95.230469 68.222656 95.277344 69.007812 95.175781 C 70.070312 95.035156 71.027344 94.628906 71.875 93.949219 C 72.847656 93.167969 73.671875 92.027344 74.324219 90.554688 C 74.835938 89.394531 75.246094 88.027344 75.542969 86.492188 C 76.046875 83.886719 76.046875 81.714844 76.046875 81.625 " fill-opacity="1" fill-rule="nonzero"/><path fill="rgb(30.198669%, 30.198669%, 30.198669%)" d="M 76.292969 78.492188 C 76.296875 77.425781 76.214844 76.46875 76.058594 75.644531 C 75.851562 74.578125 75.515625 73.734375 75.046875 73.125 C 74.710938 72.6875 74.308594 72.371094 73.84375 72.179688 C 72.574219 71.664062 70.441406 71.578125 69.128906 72.214844 C 68.300781 72.617188 67.640625 73.414062 67.164062 74.578125 C 66.824219 75.410156 66.578125 76.417969 66.417969 77.644531 C 66.238281 79 66.1875 80.355469 66.261719 81.671875 C 66.273438 81.898438 66.417969 82.074219 66.597656 82.09375 C 66.625 82.097656 66.652344 82.097656 66.683594 82.09375 C 66.902344 82.0625 67.066406 81.824219 67.054688 81.558594 C 66.984375 80.316406 67.035156 79.035156 67.203125 77.75 C 67.535156 75.21875 68.273438 73.652344 69.398438 73.105469 C 70.71875 72.460938 73.472656 72.523438 74.453125 73.796875 C 75.140625 74.691406 75.5 76.324219 75.496094 78.515625 C 75.492188 80.226562 75.265625 81.675781 75.261719 81.691406 C 75.21875 81.949219 75.363281 82.195312 75.578125 82.234375 C 75.582031 82.234375 75.589844 82.238281 75.59375 82.238281 C 75.804688 82.261719 76 82.082031 76.042969 81.828125 C 76.054688 81.765625 76.285156 80.289062 76.292969 78.492188 " fill-opacity="1" fill-rule="nonzero"/><path fill="rgb(30.198669%, 30.198669%, 30.198669%)" d="M 74.695312 53.308594 C 74.464844 53.683594 74.199219 54.050781 73.941406 54.402344 C 73.355469 55.207031 72.75 56.035156 72.476562 57.117188 C 72.316406 57.769531 72.234375 58.429688 72.152344 59.070312 C 72.078125 59.644531 72.007812 60.191406 71.886719 60.734375 C 71.648438 61.785156 71.488281 62.765625 71.398438 63.707031 L 71.332031 63.667969 C 71.300781 64.285156 71.261719 64.898438 71.207031 65.507812 C 71.148438 66.191406 69.730469 72.171875 70.535156 72.449219 C 71.0625 72.632812 71.492188 72.648438 72.046875 72.574219 C 72.304688 72.539062 72.757812 72.613281 72.886719 72.320312 C 72.886719 72.320312 72.886719 72.320312 72.886719 72.316406 C 73.65625 70.554688 72.242188 67.355469 72.304688 65.34375 C 72.316406 64.976562 72.328125 64.605469 72.34375 64.234375 L 72.285156 64.203125 C 72.359375 63.183594 72.523438 62.109375 72.789062 60.9375 C 72.921875 60.351562 72.996094 59.757812 73.070312 59.183594 C 73.140625 58.625 73.226562 58.070312 73.335938 57.515625 C 73.457031 56.890625 73.527344 56.222656 73.925781 55.71875 C 74.285156 55.265625 74.375 55.128906 74.636719 54.726562 C 74.863281 54.378906 75.039062 53.914062 75.175781 53.484375 C 75.230469 53.300781 75.234375 53.152344 75.242188 52.96875 C 75.050781 52.992188 74.796875 53.140625 74.695312 53.308594 " fill-opacity="1" fill-rule="nonzero"/><path fill="rgb(30.198669%, 30.198669%, 30.198669%)" d="M 97 75.554688 C 97.007812 73.671875 96.832031 71.757812 96.875 69.9375 C 96.9375 67.1875 96.929688 64.699219 96.21875 62.15625 C 95.742188 60.460938 95.058594 58.808594 94.132812 57.304688 C 94.121094 57.285156 94.109375 57.265625 94.097656 57.246094 C 93.609375 56.457031 93.039062 55.722656 92.40625 55.042969 C 92.175781 54.796875 91.9375 54.554688 91.691406 54.324219 C 91.464844 54.113281 91.242188 53.871094 90.976562 53.707031 C 90.785156 53.589844 90.574219 53.546875 90.355469 53.507812 C 90.277344 53.496094 90.214844 53.523438 90.144531 53.519531 C 90.246094 53.851562 90.390625 54.15625 90.566406 54.453125 C 90.609375 54.53125 90.65625 54.609375 90.710938 54.679688 C 90.847656 54.851562 91.035156 54.957031 91.183594 55.109375 C 91.351562 55.28125 91.539062 55.4375 91.703125 55.613281 C 93.472656 57.507812 94.632812 59.925781 95.328125 62.40625 C 96.003906 64.828125 96.007812 67.238281 95.949219 69.917969 C 95.914062 71.523438 95.921875 73.128906 95.941406 74.734375 C 95.964844 76.195312 96.066406 77.613281 95.726562 79.054688 C 95.542969 79.824219 95.257812 80.609375 94.984375 81.367188 C 94.433594 82.894531 93.859375 84.476562 94.007812 86.15625 C 94.03125 86.398438 94.230469 86.578125 94.46875 86.578125 C 94.484375 86.578125 94.496094 86.578125 94.511719 86.578125 C 94.765625 86.550781 94.953125 86.328125 94.929688 86.074219 C 94.800781 84.597656 95.3125 83.179688 95.855469 81.679688 C 96.140625 80.898438 96.429688 80.089844 96.625 79.269531 C 96.910156 78.070312 96.996094 76.820312 97 75.554688 " fill-opacity="1" fill-rule="nonzero"/><path fill="rgb(39.99939%, 39.99939%, 39.99939%)" d="M 98.378906 92.007812 C 98.402344 94.121094 96.707031 95.851562 94.59375 95.871094 C 92.480469 95.894531 90.746094 94.203125 90.722656 92.09375 C 90.703125 89.980469 92.394531 88.25 94.511719 88.230469 C 96.625 88.207031 98.359375 89.898438 98.378906 92.007812 " fill-opacity="1" fill-rule="nonzero"/><path fill="rgb(81.17981%, 81.959534%, 82.348633%)" d="M 98.09375 92.011719 C 98.113281 93.964844 96.546875 95.566406 94.589844 95.585938 C 92.632812 95.609375 91.03125 94.042969 91.011719 92.089844 C 90.992188 90.136719 92.558594 88.535156 94.515625 88.515625 C 96.46875 88.496094 98.074219 90.058594 98.09375 92.011719 " fill-opacity="1" fill-rule="nonzero"/><path fill="rgb(39.99939%, 39.99939%, 39.99939%)" d="M 96.988281 92.027344 C 97.003906 93.367188 95.925781 94.46875 94.578125 94.484375 C 93.230469 94.5 92.128906 93.421875 92.117188 92.078125 C 92.101562 90.734375 93.179688 89.632812 94.527344 89.617188 C 95.871094 89.605469 96.976562 90.679688 96.988281 92.027344 " fill-opacity="1" fill-rule="nonzero"/><path fill="rgb(81.17981%, 81.959534%, 82.348633%)" d="M 96.511719 92.03125 C 96.527344 93.109375 95.65625 93.996094 94.574219 94.007812 C 93.492188 94.019531 92.601562 93.152344 92.589844 92.070312 C 92.578125 90.992188 93.449219 90.105469 94.53125 90.09375 C 95.613281 90.082031 96.503906 90.949219 96.511719 92.03125 " fill-opacity="1" fill-rule="nonzero"/><path fill="rgb(81.17981%, 81.959534%, 82.348633%)" d="M 94.527344 89.59375 C 94.664062 89.589844 94.796875 89.609375 94.929688 89.640625 L 94.902344 86.992188 L 94.09375 87 L 94.125 89.652344 C 94.253906 89.613281 94.390625 89.597656 94.527344 89.59375 " fill-opacity="1" fill-rule="nonzero"/><path fill="rgb(30.198669%, 30.198669%, 30.198669%)" d="M 93.980469 85.363281 L 94.003906 87.527344 C 94.003906 87.582031 94.230469 87.621094 94.503906 87.617188 C 94.78125 87.617188 95.003906 87.570312 95.003906 87.515625 L 94.980469 85.351562 L 93.980469 85.363281 " fill-opacity="1" fill-rule="nonzero"/><path fill="rgb(99.21875%, 83.529663%, 70.588684%)" d="M 94.046875 102.6875 C 96.140625 101.679688 99.097656 100.554688 101.574219 100.757812 C 103.960938 100.953125 104.535156 102.757812 107.199219 102.703125 C 108.460938 102.679688 110 102.773438 110.574219 103.738281 C 110.824219 104.160156 110.820312 104.660156 110.738281 105.128906 C 110.382812 107.183594 109.230469 108.242188 107.226562 109.246094 C 102.335938 111.699219 96.265625 112.46875 91.460938 109.425781 C 87.871094 107.152344 90.351562 104.464844 94.046875 102.6875 " fill-opacity="1" fill-rule="nonzero"/><path fill="rgb(99.21875%, 83.529663%, 70.588684%)" d="M 53.589844 110.894531 C 54.417969 109.136719 54.847656 106.929688 55.425781 104.964844 C 57.074219 99.339844 58.71875 93.703125 59.835938 87.941406 C 60.703125 83.464844 62.160156 79.042969 62.300781 74.453125 C 62.386719 71.652344 61.878906 66.550781 59.164062 64.929688 C 54.863281 62.363281 51.753906 69.519531 49.964844 71.980469 C 46.269531 77.050781 44.644531 84.730469 43.933594 90.894531 C 43.417969 95.371094 43.25 99.855469 43.308594 104.308594 C 43.351562 107.796875 42.121094 112.746094 46.792969 113.875 C 50.652344 114.804688 52.476562 113.253906 53.589844 110.894531 " fill-opacity="1" fill-rule="nonzero"/><path fill="rgb(99.21875%, 83.529663%, 70.588684%)" d="M 47.65625 105.105469 C 48.589844 104.433594 49.535156 104.210938 51.214844 104.234375 C 55.628906 104.292969 60.046875 104.363281 64.460938 104.421875 C 73.070312 104.546875 81.675781 104.671875 90.285156 104.792969 C 90.359375 104.796875 91.605469 104.777344 91.613281 104.816406 C 91.617188 104.824219 92.773438 109.855469 92.773438 109.855469 C 92.773438 109.855469 52.050781 120.730469 44.324219 112.550781 C 42.53125 110.648438 44.804688 107.9375 46.21875 106.433594 C 46.75 105.867188 47.199219 105.433594 47.65625 105.105469 " fill-opacity="1" fill-rule="nonzero"/><path fill="rgb(99.21875%, 83.529663%, 70.588684%)" d="M 135.191406 100.65625 C 134.675781 97.230469 133.347656 95.15625 131.460938 92.859375 C 127.765625 88.363281 124.324219 83.753906 121.128906 78.929688 C 119.652344 76.699219 113.875 63.140625 109.847656 65.101562 C 109.269531 65.386719 109.246094 66.191406 109.308594 66.832031 C 110.007812 74.015625 111.53125 81.390625 113.230469 88.417969 C 113.871094 91.070312 114.28125 94.285156 115.871094 96.453125 C 117.519531 98.699219 120.0625 100.65625 122.105469 102.546875 C 124.957031 105.1875 128.109375 109.78125 132.257812 107.574219 C 135.046875 106.089844 135.617188 103.5 135.191406 100.65625 " fill-opacity="1" fill-rule="nonzero"/><path fill="rgb(99.21875%, 83.529663%, 70.588684%)" d="M 124.050781 103.296875 C 123.484375 102.296875 123.429688 101.390625 123.796875 99.867188 C 124.75 95.871094 125.714844 91.878906 126.679688 87.882812 C 128.550781 80.09375 130.425781 72.304688 132.296875 64.515625 C 132.3125 64.449219 132.542969 63.3125 132.585938 63.3125 C 132.601562 63.316406 138.464844 63.386719 138.464844 63.386719 C 138.464844 63.386719 142.417969 102.789062 131.710938 107.976562 C 129.222656 109.183594 126.644531 106.511719 125.246094 104.894531 C 124.722656 104.285156 124.328125 103.777344 124.050781 103.296875 " fill-opacity="1" fill-rule="nonzero"/><path fill="rgb(99.21875%, 83.529663%, 70.588684%)" d="M 130.71875 63.984375 C 129.832031 61.917969 128.917969 59.042969 129.445312 56.792969 C 129.957031 54.617188 132.074219 54.332031 132.335938 51.875 C 132.460938 50.707031 132.757812 49.304688 133.921875 48.90625 C 134.433594 48.730469 135 48.800781 135.519531 48.9375 C 137.808594 49.542969 138.867188 50.75 139.761719 52.726562 C 141.953125 57.5625 142.082031 63.253906 138.050781 67.269531 C 135.035156 70.269531 132.28125 67.621094 130.71875 63.984375 " fill-opacity="1" fill-rule="nonzero"/><path fill="rgb(48.239136%, 63.919067%, 89.7995%)" d="M 107.285156 62.234375 C 112.136719 62.726562 117.347656 69.539062 118.949219 72.734375 C 121.34375 77.515625 124.683594 81.34375 127.335938 85.917969 C 127.386719 82.824219 127.953125 79.765625 128.523438 76.734375 C 129.117188 73.554688 130.1875 70.386719 130.566406 67.191406 C 131.539062 66.8125 133.640625 67.363281 134.691406 67.417969 C 136.289062 67.496094 137.886719 67.519531 139.488281 67.492188 C 139.699219 67.488281 140.101562 72.664062 140.113281 73.019531 C 140.1875 75.195312 140.105469 77.367188 140.105469 79.539062 C 140.199219 83.609375 140.183594 87.695312 139.761719 91.753906 C 139.386719 95.359375 138.691406 98.9375 137.46875 102.359375 C 136.699219 104.503906 135.25 109.402344 132.59375 109.914062 C 128.457031 110.710938 113.476562 94.289062 111.5 92.210938 C 111.5 92.210938 107.371094 62.980469 107.285156 62.234375 " fill-opacity="1" fill-rule="nonzero"/><path fill="rgb(36.079407%, 47.839355%, 67.449951%)" d="M 76.71875 103.445312 C 73.773438 103.230469 70.824219 102.910156 67.886719 102.929688 C 65.738281 102.949219 63.566406 103.285156 61.453125 102.660156 C 57.453125 101.472656 59.949219 96.65625 60.660156 93.582031 C 61.402344 90.382812 62.292969 87.230469 63.066406 84.042969 C 63.480469 82.347656 62.695312 80.683594 61.726562 79.429688 C 59.835938 76.972656 58.5 80.011719 57.398438 81.867188 C 54.851562 86.152344 54.199219 92.441406 53.199219 97.230469 C 52.53125 100.425781 51.914062 103.644531 51.519531 106.882812 C 51.394531 107.917969 51.019531 109.363281 51.238281 110.394531 C 51.660156 112.378906 53.8125 112.683594 55.644531 112.777344 C 64.601562 113.230469 73.605469 112.832031 82.488281 111.585938 C 86.214844 111.0625 84.707031 107.421875 84.253906 104.816406 C 84.210938 104.566406 84.164062 104.308594 84.035156 104.101562 C 83.710938 103.578125 83.03125 103.585938 82.464844 103.605469 C 80.558594 103.679688 78.640625 103.585938 76.71875 103.445312 " fill-opacity="1" fill-rule="nonzero"/><path fill="rgb(48.239136%, 63.919067%, 89.7995%)" d="M 52.578125 66.144531 C 53.777344 64.410156 56.085938 62.902344 58.113281 62.378906 C 61.722656 61.449219 63.804688 65.164062 64.761719 68.269531 C 65.46875 70.5625 65.359375 72.972656 65.144531 75.339844 C 64.558594 81.71875 58.707031 97.882812 58.878906 100.007812 C 59.207031 104.03125 64.851562 103.574219 67.753906 103.550781 C 71.757812 103.515625 75.769531 103.476562 79.769531 103.660156 C 80.675781 103.703125 90.265625 103.675781 90.273438 103.714844 C 90.578125 105.472656 92.949219 111.648438 92.039062 112.839844 C 91.945312 112.960938 89.320312 113.703125 88.980469 113.824219 C 87.832031 114.226562 86.644531 114.496094 85.433594 114.613281 C 78.964844 115.242188 72.488281 116.550781 65.984375 116.894531 C 58.902344 117.265625 51.988281 116.378906 45.125 114.871094 C 41.28125 114.023438 41.179688 105.90625 41.34375 103.445312 C 41.828125 96.277344 43.121094 88.828125 45.296875 81.890625 C 46.507812 78.039062 47.875 74.183594 49.960938 70.601562 C 50.742188 69.265625 51.558594 67.621094 52.578125 66.144531 " fill-opacity="1" fill-rule="nonzero"/></svg>