<svg xmlns="http://www.w3.org/2000/svg" xmlns:xlink="http://www.w3.org/1999/xlink" width="48" height="48" preserveAspectRatio="xMidYMid meet" version="1.0" viewBox="0 0 48 48" zoomAndPan="magnify"><defs><clipPath id="clip-0"><path d="M 1.21875 1 L 47.503906 1 L 47.503906 46.464844 L 1.21875 46.464844 Z M 1.21875 1" clip-rule="nonzero"/></clipPath></defs><g clip-path="url(#clip-0)"><path fill="#4EC5CD" fill-opacity="1" fill-rule="nonzero" d="M 11.25 32.242188 C 10.554688 31.4375 9.882812 30.621094 9.257812 29.773438 C 8.636719 28.925781 8.042969 28.058594 7.503906 27.164062 C 6.960938 26.269531 6.464844 25.355469 6.027344 24.414062 C 5.585938 23.480469 5.199219 22.519531 4.882812 21.542969 C 4.230469 19.59375 3.835938 17.578125 3.675781 15.550781 C 3.632812 15.042969 3.609375 14.535156 3.601562 14.027344 L 3.597656 13.835938 L 3.597656 13.652344 C 3.597656 13.539062 3.601562 13.417969 3.605469 13.300781 C 3.613281 13.0625 3.632812 12.828125 3.65625 12.597656 C 3.761719 11.664062 4.007812 10.765625 4.386719 9.933594 C 4.765625 9.101562 5.269531 8.335938 5.882812 7.667969 C 6.496094 7.003906 7.210938 6.4375 7.996094 5.992188 C 9.554688 5.082031 11.378906 4.664062 13.175781 4.742188 C 14.980469 4.804688 16.753906 5.371094 18.335938 6.308594 C 19.925781 7.238281 21.332031 8.53125 22.515625 10.035156 L 23.921875 11.816406 L 25.449219 10.074219 C 26.464844 8.917969 27.597656 7.894531 28.835938 7.085938 C 29.457031 6.683594 30.101562 6.332031 30.765625 6.046875 C 31.425781 5.753906 32.109375 5.523438 32.800781 5.367188 C 34.183594 5.046875 35.609375 5.019531 36.960938 5.300781 C 38.3125 5.570312 39.589844 6.152344 40.644531 7 C 41.703125 7.847656 42.527344 8.953125 43.039062 10.203125 C 43.292969 10.828125 43.46875 11.488281 43.5625 12.171875 C 43.605469 12.515625 43.632812 12.859375 43.636719 13.210938 C 43.640625 13.382812 43.640625 13.558594 43.632812 13.734375 L 43.625 13.867188 L 43.617188 14.023438 L 43.597656 14.300781 C 43.492188 15.816406 43.183594 17.339844 42.707031 18.828125 C 42.230469 20.316406 41.605469 21.773438 40.851562 23.175781 C 40.097656 24.582031 39.21875 25.925781 38.257812 27.226562 C 37.296875 28.519531 36.230469 29.75 35.105469 30.929688 C 33.984375 32.113281 32.78125 33.226562 31.527344 34.289062 C 30.277344 35.359375 28.964844 36.355469 27.617188 37.3125 C 24.914062 39.21875 22.039062 40.90625 19.054688 42.414062 C 17.566406 43.167969 16.042969 43.875 14.503906 44.542969 C 13.730469 44.871094 12.957031 45.203125 12.175781 45.515625 C 11.394531 45.828125 10.609375 46.128906 9.820312 46.433594 C 10.648438 46.269531 11.472656 46.082031 12.292969 45.882812 C 13.113281 45.679688 13.933594 45.472656 14.746094 45.238281 C 16.378906 44.773438 17.992188 44.242188 19.585938 43.648438 C 20.382812 43.351562 21.175781 43.039062 21.964844 42.710938 C 22.75 42.378906 23.527344 42.03125 24.304688 41.664062 C 25.851562 40.941406 27.367188 40.136719 28.855469 39.265625 C 30.339844 38.398438 31.78125 37.445312 33.179688 36.421875 C 34.578125 35.402344 35.921875 34.292969 37.207031 33.105469 C 38.496094 31.921875 39.703125 30.644531 40.832031 29.285156 C 41.960938 27.925781 42.996094 26.472656 43.90625 24.929688 C 44.816406 23.386719 45.605469 21.75 46.210938 20.023438 C 46.816406 18.304688 47.242188 16.492188 47.429688 14.632812 L 47.457031 14.273438 L 47.480469 13.929688 C 47.496094 13.679688 47.503906 13.433594 47.503906 13.183594 C 47.503906 12.683594 47.476562 12.183594 47.417969 11.683594 C 47.300781 10.683594 47.058594 9.6875 46.691406 8.738281 C 46.324219 7.789062 45.835938 6.882812 45.234375 6.0625 C 44.632812 5.242188 43.925781 4.5 43.140625 3.863281 C 41.570312 2.589844 39.699219 1.730469 37.753906 1.332031 C 35.808594 0.941406 33.796875 1.003906 31.902344 1.453125 C 30.957031 1.675781 30.039062 1.992188 29.160156 2.382812 C 28.285156 2.78125 27.457031 3.253906 26.671875 3.785156 C 25.101562 4.847656 23.730469 6.136719 22.546875 7.542969 L 25.480469 7.578125 C 23.996094 5.808594 22.207031 4.230469 20.113281 3.089844 C 18.027344 1.957031 15.636719 1.296875 13.222656 1.308594 C 10.8125 1.324219 8.402344 2.019531 6.378906 3.34375 C 5.371094 4.011719 4.460938 4.828125 3.699219 5.773438 C 2.9375 6.714844 2.324219 7.777344 1.910156 8.914062 C 1.492188 10.046875 1.265625 11.238281 1.222656 12.421875 C 1.210938 12.71875 1.210938 13.015625 1.222656 13.308594 C 1.226562 13.460938 1.238281 13.601562 1.25 13.753906 L 1.265625 13.96875 L 1.289062 14.171875 C 1.34375 14.722656 1.417969 15.273438 1.507812 15.820312 C 1.855469 18.003906 2.5 20.136719 3.394531 22.132812 C 3.84375 23.132812 4.355469 24.097656 4.917969 25.023438 C 5.488281 25.949219 6.109375 26.835938 6.773438 27.679688 C 7.445312 28.519531 8.152344 29.324219 8.902344 30.082031 C 9.652344 30.839844 10.433594 31.566406 11.25 32.242188"/></g></svg>