<?xml version="1.0" encoding="UTF-8"?><svg version="1.1" id="Layer_1" xmlns="http://www.w3.org/2000/svg" xmlns:xlink="http://www.w3.org/1999/xlink" x="0px" y="0px" viewBox="0 0 792 792" style="enable-background:new 0 0 792 792;" xml:space="preserve" width="792px" height="792px">

<g>
	<rect x="87.1" y="391.2" width="620.8" height="113.6" style="fill:#EEEEEE;"/>
	<rect x="136.6" y="391.2" width="1.6" height="113.6" style="fill:#FFFFFF;"/>
	<rect x="212.3" y="391.2" width="1.6" height="113.6" style="fill:#FFFFFF;"/>
	<rect x="287.9" y="391.2" width="1.6" height="113.6" style="fill:#FFFFFF;"/>
	<rect x="363.6" y="391.2" width="1.6" height="113.6" style="fill:#FFFFFF;"/>
	<rect x="439.3" y="391.2" width="1.6" height="113.6" style="fill:#FFFFFF;"/>
	<rect x="514.9" y="391.2" width="1.6" height="113.6" style="fill:#FFFFFF;"/>
	<rect x="590.6" y="391.2" width="1.6" height="113.6" style="fill:#FFFFFF;"/>
	<rect x="666.2" y="391.2" width="1.6" height="113.6" style="fill:#FFFFFF;"/>
	<rect x="398.3" y="428.1" width="310.4" height="1.6" style="fill:#FFFFFF;"/>
	<rect x="343.4" y="491.1" width="215.3" height="1.6" style="fill:#FFFFFF;"/>
	<rect x="87.1" y="460.7" width="215.3" height="1.6" style="fill:#FFFFFF;"/>
</g>
<g>
	<path d="M304.9,160.4c-3-7.6-5.1-12.6-5.1-12.6l43-16.9l23.7-9.3c2.4,3.8,4.5,7.8,6.4,11.8L304.9,160.4z" style="fill:#607D8B;"/>
	<path d="M349.7,253.7c-0.2-0.2-22.3-25-35.2-66c-3.2-10.1-6.8-19.9-9.7-27.3c6.7-6.2,9.8-6.8,14.5-10.9
		c4.9-4.3,0.9-9.8,0.9-9.8l22.5-8.9c0,0,1.5,4.8,5.6,5.5c8.5,1.3,11.7-2.2,24.5-3c3.2,6.3,5.6,13.9,15.8,36.1
		c9,19.2,19.8,37.5,32.1,54.8L349.7,253.7z" style="fill:#90A4AE;"/>
	<path d="M335.4,217.3c-3.4-9.3-5.7-19-7-28.8c-1.5-14.1-2.9-31.1,0.4-32.2s8.9,3.8,10.6,8.2c2,5.2,4.5,10.3,7.5,15
		c2.7,4,4.9,13,5.6,16.6c0.7,3.6,6.4,10.5,9.8,21.1c3.3,10.6-8.3,17.9-11.1,18.8C348.3,236.9,339.6,228.5,335.4,217.3z" style="fill:#607D8B;"/>
	<path d="M356.4,181.9c-3.8-7.8-7.4-16.5-8.5-22.6c-1.1-6.1-1.5-9.6,0.6-10.5s9.9-0.4,24.3,18.8
		c14.4,19.2,23.2,31.8,25.9,40c2.7,8.2,0.5,10-1.6,10.8c-2.1,0.9-19.5,3-23.4-11.5C369.6,191.9,359.5,188.1,356.4,181.9z" style="fill:#607D8B;"/>
	<path d="M339.1,164l-12.4-0.1c0-1.3,0.2-2.7,0.3-4l9.3,0.1C337.5,161.1,338.5,162.5,339.1,164z" style="fill:#90A4AE;"/>
	<path d="M359.2,152.9l-11,8c-0.1-0.6-0.2-1.1-0.3-1.6c-0.2-1-0.3-1.9-0.5-2.8l8.2-6
		C356.9,151.3,358.1,152.1,359.2,152.9z" style="fill:#90A4AE;"/>
	<path d="M341.9,170.4c-5.8,1.4-10.9,4.8-14.4,9.6c-0.2-2-0.3-3.9-0.4-5.7c3.7-3.6,8.2-6.2,13.2-7.6
		C340.7,167.9,341.3,169.2,341.9,170.4z" style="fill:#6E8996;"/>
	<path d="M346.6,179.2c-8,3-14.3,9.4-17,17.5c-0.5-2.4-0.9-4.8-1.2-7.3c3.7-6.2,9.3-11,16.1-13.7
		C345.2,177,345.9,178.1,346.6,179.2z" style="fill:#6E8996;"/>
	<path d="M350.8,189.3c-8.8,5.4-14.9,14.3-16.6,24.5c-0.6-1.9-1.4-4.4-2.2-7.3c3.1-8.9,9.4-16.4,17.6-21.1
		C350,186.6,350.4,188,350.8,189.3z" style="fill:#6E8996;"/>
	<path d="M355,201.5c-2.7,1.7-12.8,8.8-15,24.7c-1.1-1.7-2.2-3.5-3.1-5.4v0c2.2-9.4,8-17.7,16.2-22.9L355,201.5z" style="fill:#6E8996;"/>
	<path d="M360.4,212.1c-7.2,5.3-12,13.3-13.3,22.1c-1.3-1-2.5-2.1-3.5-3.4c2-9.1,7.4-17.2,15.1-22.5
		C359.2,209.6,359.8,210.8,360.4,212.1z" style="fill:#6E8996;"/>
	<path d="M371.2,165.5c-7.7-3.1-16.8,0-21,1.9c-0.5-1.4-0.9-2.6-1.3-3.9c5.6-2.6,11.8-3.7,17.9-3.2
		C368.2,161.8,369.7,163.6,371.2,165.5z" style="fill:#6E8996;"/>
	<path d="M379.3,176.3c-9.8-4.4-20.5-1.4-25.3,0.4c-0.5-1.2-1.1-2.5-1.6-3.7c7.2-2.9,15.1-3.7,22.7-2.3
		C376.5,172.6,377.9,174.5,379.3,176.3z" style="fill:#6E8996;"/>
	<path d="M389,190c-10.3-7-23.1-5.4-29.5-4c-1.1-1-2-2.2-2.8-3.5c5-1.4,16.4-3.6,27.4,0.5
		C385.9,185.5,387.5,187.8,389,190z" style="fill:#6E8996;"/>
	<path d="M396.8,203c-8.5-4.7-18.1-6.9-27.7-6.5c-0.9-1.3-1.9-2.6-2.9-3.8c9.3-1,18.8,0.4,27.3,4.3
		C394.8,199.2,395.9,201.2,396.8,203z" style="fill:#6E8996;"/>
	<path d="M399.5,216.4c-7.6-4.6-16.3-7.3-25.2-7.8l-0.9-2.7l-0.4-1.4c9.4,0.2,18.7,2.8,26.9,7.4
		C400.2,213.5,400.1,215,399.5,216.4z" style="fill:#6E8996;"/>
	<path d="M328.8,192.4c-5.1-6.4-8.9,3.3-8.9,3.3l-1.8,4.7l11.1,22.4c1.8-1.3,4.6-2.9,4.8-6.1c0-0.8,0.1-1.9,0-3.2
		c-2.3-6.8-4-13.9-5.2-21C328.9,192.5,328.8,192.5,328.8,192.4z" style="fill:#546973;"/>
	<path d="M334.1,213.5c-0.1-5.8-1.1-15.7-5.2-21C330.1,199.7,331.8,206.7,334.1,213.5z" style="fill:#4A616C;"/>
	<path d="M319.5,200.4c1.1-7,0.1-11.8-1.9-11.2c-1.9,0.6-4.4,12.1-4.9,13.7c-0.8,2.4-1.2,4.9-1.3,7.5
		c0,7.8-2.2,12.4-4.9,21.1c2.3,4.9,14.1,6.5,14.1,6.5s3.9-9.9,4.5-11.3c0.8-2,3-2.9,4.2-3.7L319.5,200.4z" style="fill:#D19A5C;"/>
	<path d="M319.5,200.4c0,0,3.6,9.1,2.1,13.5c2.8,2.8,5.3,5.7,7.6,8.9L319.5,200.4z" style="fill:#C28F55;"/>
	<path d="M224.5,248.9c-15.8-5.1-25.7-4-32.5,12.2c-3.8,9,7.5,27.1,28.2,34.8c15.7,5.8,63.9,26.7,77.9,9.4
		c13.3-16.3,28.1-55.6,30.3-67.7l-23.9-12.4l-28.1,48.1L224.5,248.9z" style="fill:#2196F3;"/>
	<path d="M231.2,212.6c-2.1,4-7.6,9.2-16,14c-1.7,1-2.5,5.4-2.8,8.7c-0.2,1.4-0.9,2.8-1.8,3.9h-35.1
		c4.4-3.1,7.8-7.5,9.8-12.6c2.1-5.1,1.3-10.9-2.1-15.2c-4.3-5.7-9.8-15.2-9.8-37c0-24.9,18.1-33.2,33.4-33.2
		c21.4,0,31.7,14.5,31.7,41.7C238.4,193.2,236,203.4,231.2,212.6z" style="fill:#E6B175;"/>
	<path d="M169.3,174.4c0-24.9,14.8-37.4,37.4-37.4c11.1,0.2,21.9,3.7,30.9,10c5,3.7,6.1,10.7,2.4,15.7
		c-1.2,1.6-2.7,2.8-4.4,3.6l-13.9,6.2c-3,1.7-4.8,4.9-4.8,8.3c-0.2,4-3.1,5-4.8,5.9c-1.9-7.8-4.8-9.5-7.4-9.5
		c-1.6-0.1-3.2,0.4-4.5,1.4c-1.8,2-2.7,4.7-2.4,7.3c0.4,4.1,1.6,8,3.8,11.6c1.5,1.8,1.3,4.4-0.4,6.1c-5.3,5.1-19.4,13.1-19.4,13.1
		C183.5,206.8,169.3,202.9,169.3,174.4z" style="fill:#212121;"/>
	<path d="M221.4,242.4c0,0,9.8,13.9,11,15.6c5,7.7,18.6,34.6,18.6,100.2c0,18,4.9,181.4,4.9,181.4s-18.2,3-54.7-2
		l11.3-302.5L221.4,242.4z" style="fill:#64B5F6;"/>
	<path d="M209.2,239.4c0,0,32.8,28.2,33.5,122.9h-38.5l-28.4-122.9H209.2z" style="fill:#E0E0E0;"/>
	<polygon points="233.5,256.5 239.6,305.9 212.5,235.2 213,232 223.4,240.4 226.5,248.5 	" style="fill:#BBDEFB;"/>
	<path d="M236.6,294.8c0-24.2-18.2-55.4-18.2-55.4l-5.9-4.2L236.6,294.8z" style="fill:#E0E0E0;"/>
	<polygon points="213.3,230.3 221.4,242.4 212.5,235.2 	" style="fill:#EEEEEE;"/>
	<path d="M212.5,235.2l2.8,3.4c1.7,2.1,2.3,4.8,1.8,7.4l0,0c0,0,33.8,34.2,23.6,128.4c-0.1,1.2-0.9,22.9-0.9,22.9
		c-2.5-3.4-4.8-6.9-6.8-10.6c8.5-84.7-20.7-138.9-20.7-138.9l-3.8-1.7L212.5,235.2z" style="fill:#78909C;"/>
	<polygon points="186.3,219.9 212.5,235.2 207.7,253 179.9,232.1 	" style="fill:#EEEEEE;"/>
	<path d="M159.7,706.1c-2.6-1.7-7.5-4.6-8.3-6.1c-1.4-2.8-0.1-7.8-0.1-13.5s0.2-9.8,0.2-9.8h21.4
		c0,1.2-0.3,5.6-0.3,9.4c0,5,5.7,11.6,10.5,15.2c5.3,4.2,8.2,10.8,7.5,17.6c-5,0.4-9.9-0.3-14.6-1.9
		C169.2,714.4,159.7,706.1,159.7,706.1z" style="fill:#212121;"/>
	<path d="M242.2,690.5c-21-4.5-19.4-15.7-19.4-15.7l-18.5,0l-1,21.1c0,0-1,7.1,3.3,7.1h47.8c0.1-0.7,0.1-1.4,0-2
		C253.9,697.9,251.6,692.6,242.2,690.5z" style="fill:#212121;"/>
	<path d="M242.7,394.6h-46.6v18.1c0,0,0.5,51.6,1.9,64.8c2,18.8,3.3,95.1,3.3,95.1c-5.5,41.9,0.8,112.9,0.8,112.9h30.4
		c0,0,8.4-78.4,8.4-131.6c0-76.3,1.8-105,1.8-137.9L242.7,394.6z" style="fill:#1D3B70;"/>
	<path d="M224.4,412.7c-1.3,53.6-16.4,121.9-21.8,144.1c-5.4,22.1-26.2,131.9-26.2,131.9s-1,5.1-10.6,5.8
		c-7,0.2-14-1.8-19.8-5.8c0-63.7,11.6-120.9,14.9-134.2c-2.3-52.6-1.6-105.8-1.6-105.8l0.2-54.1h64.9V412.7z" style="fill:#1F4172;"/>
	<path d="M181.8,228.5c0,0-21.7,29.4-29,41.3c-14.9,24.3,2.5,69.3,3,91c-7.1,40.3-33.2,163.1-33.2,163.1
		s24.8,32.9,122.1,22.8c1-20.1-2.1-147.1-1-180.4c0-37.3-6.1-50.4-9.1-61.5C223.4,275.7,181.8,228.5,181.8,228.5z" style="fill:#90CAF9;"/>
	<path d="M181.8,228.5c0,0-3.7,5.1-8.5,11.8c3.3,4,6.4,8.3,9.3,12.6l13.6,1l1.9,10.6c0,0,25.6,17.7,36.5,40.3
		c-3.7-10.3-8.4-20.3-13.8-29.9C210.6,257.4,197.4,241.7,181.8,228.5z" style="fill:#BBDEFB;"/>
	<polygon points="157.5,414.6 221.3,363 262.9,413.9 199.2,465.5 	" style="fill:#E53935;"/>
	<ellipse cx="218.8" cy="407.4" rx="11.6" ry="11.5" style="fill:#FFFFFF;"/>
	<polygon points="225.6,404.8 222.7,401.2 219.1,404.1 216.2,400.6 212.6,403.5 215.5,407 211.9,409.9 214.9,413.5 
		218.4,410.6 221.4,414.2 225,411.3 222,407.7 	" style="fill:#DD2C00;"/>
	<path d="M213.6,414.6l5.4,7.1c4.2,5.3,8,10.8,11.4,16.6c2.8,5.5,3.3,6.9-0.5,10.1c-1.5,1.3-8.4,6.1-10.9,7.8
		c-7.3,4.7-13.5-5.3-17.2-17.2c-1.5-4.1-3.4-8-5.6-11.7L213.6,414.6z" style="fill:#E6B175;"/>
	<path d="M215.3,427.5l3.6-5.8c1.7,2.3,6.3,1.5,14.8,11.2c2.5,2.9,4.9,4.2,4.3,5.2c-3.9,4.5-9.4,0.7-11.6-0.8
		C222.4,434.3,218.7,431,215.3,427.5z" style="fill:#E6B175;"/>
	<path d="M236.1,439.7c-2.1,0-4.2-1-5.5-2.7c-1.9-1.9-4-3.6-6.2-5.1c2.5,2.5,4.7,5.1,6.7,8
		C232.7,440.5,234.5,440.4,236.1,439.7z" style="fill:#D19A5C;"/>
	<path d="M153.4,298.1c1.2-8,3.3-21.1,14.5-29.2c3.7-2.2,8-3.3,12.3-3.3c12.2,0,19.9,12.2,19.9,24.2
		c0,14.1-14.1,67-14.1,67l32.4,57.9l-28.2,18.2l-37.5-54.5c-5.2-8.8-7.6-18.9-7-29.1C145.7,349.3,151.4,310.9,153.4,298.1z" style="fill:#BBDEFB;"/>
</g>
<g>
	
		<linearGradient id="back_legmEOgEFMYO9FYdoRyvbe14_1_" gradientUnits="userSpaceOnUse" x1="15349.6201" y1="-2503.4734" x2="15311.7764" y2="-2038.5171" gradientTransform="matrix(3.067740e-02 0 0 -3.052920e-02 114.5123 514.0368)">
		<stop offset="0" style="stop-color:#EEEEEE"/>
		<stop offset="1" style="stop-color:#DCE3EA"/>
	</linearGradient>
	<polygon id="back_legmEOgEFMYO9FYdoRyvbe14" points="598.4,688.3 595.4,688.3 577.7,557.2 584.5,557.2 584.5,556.9 	
		" style="fill:url(#back_legmEOgEFMYO9FYdoRyvbe14_1_);"/>
	
		<linearGradient id="front_legmEOgEFMYO9FYdoRyvbe14_1_" gradientUnits="userSpaceOnUse" x1="13341.3838" y1="-2414.2512" x2="13384.6367" y2="-1738.4403" gradientTransform="matrix(3.067740e-02 0 0 -3.052920e-02 114.5123 514.0368)">
		<stop offset="0" style="stop-color:#EEEEEE"/>
		<stop offset="1" style="stop-color:#DCE3EA"/>
	</linearGradient>
	<polygon id="front_legmEOgEFMYO9FYdoRyvbe14" points="531.9,557.2 514.2,688.3 511.2,688.3 525.1,557 525.1,557.2 	
		" style="fill:url(#front_legmEOgEFMYO9FYdoRyvbe14_1_);"/>
	
		<linearGradient id="topmEOgEFMYO9FYdoRyvbe14_1_" gradientUnits="userSpaceOnUse" x1="13383.9326" y1="-1316.9805" x2="15319.2129" y2="-1316.9805" gradientTransform="matrix(3.067740e-02 0 0 -3.052920e-02 114.5123 514.0368)">
		<stop offset="0" style="stop-color:#EEEEEE"/>
		<stop offset="1" style="stop-color:#DCE3EA"/>
	</linearGradient>
	<rect id="topmEOgEFMYO9FYdoRyvbe14" x="525.1" y="551.2" width="59.4" height="6" style="fill:url(#topmEOgEFMYO9FYdoRyvbe14_1_);"/>
	<path d="M505.5,659.7l1.7,18.7c0.1,1.5-0.6,2.9-2,3.5c-2.7,1.3-7.4,4.1-10.9,8.7c-5.3,6.8-22.5,5.8-22.5,5.8
		s-1.9-7.7,3.8-9.6c3.1-1,6.5-5.1,8.6-11.5c5.4-16.3,2.1-23.3,2.1-23.3L505.5,659.7z" style="fill:#424242;"/>
	<path d="M614.3,657c0,0-9.6,11.5-9.7,23c0,0.9,0.4,1.8,1,2.4l1.4,1.4l-1,1.9c-0.7,1.3-0.1,2.8,1.2,3.4l16.6,7.2
		c0,0,6.3,1.6,3.2-8.8c-3.2-10.4-3.2-31.4-3.2-31.4L614.3,657z" style="fill:#424242;"/>
	<path d="M553.9,550.4c14.9,0,54.9-40.6,54.9-40.6s-31.7-8.1-50.7-8.1c-25.4,0-48.7,8-48.7,8S537,550.4,553.9,550.4z" style="fill:#596D79;"/>
	<path d="M511.2,559.1c0,0,27.8-8.7,42.7-8.7L523,510.7c0,0-26.4-7.1-51.1,15.1c-4.7,4.2,25.6,38.2,25.6,38.2
		L511.2,559.1z" style="fill:#596D79;"/>
	<path d="M597.6,559.1c0,0-27.8-8.7-42.7-8.7l41.3-42.3c0,0,21.8,0,39.6,14.8c4.8,4-24.6,41.2-24.6,41.2L597.6,559.1z" style="fill:#596D79;"/>
	<path d="M625.5,520.7c14.8,0,21.4,6.4,19.3,52.9c-1.8,39.6-19,95.3-19,95.3s-6.3-6.4-19-4.2c0,0-6.6-82.6-4.5-95.3
		C604.2,557.8,606.5,520.7,625.5,520.7z" style="fill:#94A4AD;"/>
	<path d="M490.6,418.2c0,0,17-16.4,63.7-16.4s52.2,11.6,52.2,11.6s-19,38.7-5,65.9c0,0,15.2,27.8,7.3,30.4
		c-26.2,8.6-55.7,22.7-55.7,22.7l-51.1-14.4l-0.5-55.5C501.6,462.6,506.7,433.3,490.6,418.2z" style="fill:#EEEEEE;"/>
	<path d="M490.6,418.3c0,0,10.3-10,37-14.3c5.4-0.9,20.8,86,9.4,105.7c-6.3,10.9-35,8.5-35,8.5l-0.5-55.5
		C501.6,462.6,506.7,433.3,490.6,418.3z" style="fill:#FFB300;"/>
	<path d="M608.8,509.8c-20,6.5-24.4,21.1-32-4c-10.5-35.1,0.3-102.9,6.9-101.8c19.9,3.3,22.8,9.5,22.8,9.5
		s-19,38.7-5,65.9C601.6,479.3,616.8,507.2,608.8,509.8z" style="fill:#FFB300;"/>
	<path d="M604,411.3c0,0,16.9,8.2,22.3,41.6s10.9,51.4,5.9,59.5c-5,8.1-19.7,9.4-27.8-1.6s-2.7-44.7-2.7-49.4
		C601.7,456.9,589,432.3,604,411.3z" style="fill:#FFC53D;"/>
	<path d="M486.1,497.8c0,0,5,2.8,10.6,4.7c5.6,1.9,15,3.5,25.3,4.7c9.3,1.1,15.9,1,21.8,6.7c5.9,5.6,8.2,8.6,11.1,12.2
		c13,16.5,10.2,23.3-5.4,19.8c-12-2.7-12.7-5.5-14.6-9.8c-0.8-1.8-2-4-3.1-6c-1.4-2.4-3.9-4-6.7-4.1c-18.7-0.6-32.6-4.8-40.9-5.4
		c-8.9-0.6-27.3,7.1-32.1-5.4C447.3,502.7,486.1,497.8,486.1,497.8z" style="fill:#FFCCBC;"/>
	<path d="M490.6,418.2c19.4,11.2,15.8,46.8,15.8,46.8c-0.6,13.1-20.3,32.7-20.3,32.7s-12-0.4-34.1,17.5
		C447.3,502.8,473.8,440.5,490.6,418.2z" style="fill:#FFC53D;"/>
	<path d="M557.3,348.2c0,0-33.9,14.2-33.9,39.9c0,29.2,22.4,51.4,34.5,51.4c10.9,0,33.9-21.9,33.9-51.4
		C591.8,358.5,557.3,348.2,557.3,348.2z" style="fill:#FFB7A1;"/>
	<path d="M557.3,348.2c-20.4,0-33.9,14.2-33.9,39.9c0,16.8,7.2,28.1,7.2,28.1c2.5-7.7,15.8-12.6,15.8-12.6
		s6.5,13.2,28,20.6c14.7,0,17.4-20.7,17.4-36.1C591.8,358.5,575.7,348.2,557.3,348.2z" style="fill:#212121;"/>
	<path d="M570,396.2c1.8-2.5,5.2-3.2,7.7-1.5c5.6,3.8,14.7,10.8,14.7,16.2c0,7.8-1.9,12.9,1.8,22
		c3.7,9.1,34.4,46.3,36,64.9c1.2,13.7-2.1,19.6-8.6,20.9c-5.8,1.2-16.8-0.9-20.8-15.3c-4.1-14.4-21-62.6-21-62.6
		s-15.6-11.3-16.6-16.6C562.5,419.4,561.7,407.8,570,396.2z" style="fill:#FFCCBC;"/>
	<path d="M484.1,520.6c-14.8,0-21.1,4.2-19,50.8c1.8,39.6,19,95.3,19,95.3s10.6-8.5,23.3-4.2c0,0,2.3-82.6,0.2-95.3
		C505.7,555.6,503.1,520.6,484.1,520.6z" style="fill:#94A4AD;"/>
</g>
<g>
	<circle cx="525.9" cy="126" r="46.5" style="fill:#E9E9E9;"/>
	<circle cx="525.9" cy="126" r="36.7" style="fill:#F5F5F5;"/>
	<line x1="525.9" y1="126" x2="497.1" y2="140" style="fill:none;stroke:#BDBDBD;stroke-width:0.979;stroke-miterlimit:3.916;"/>
	<polygon points="527.8,126 524.7,126 524.1,110 527.8,110 	" style="fill:#9E9E9E;"/>
	<line x1="525.9" y1="126" x2="523.5" y2="96.6" style="fill:none;stroke:#BDBDBD;stroke-width:0.979;stroke-miterlimit:3.916;"/>
	<circle cx="525.9" cy="126" r="3.7" style="fill:#EEEEEE;stroke:#BDBDBD;stroke-width:0.979;stroke-miterlimit:3.916;"/>
</g>
</svg>